STARTFONT 2.1
COMMENT $Xorg: $
COMMENT ISO10646-1 extension by Markus Kuhn <mkuhn@acm.org>, 2001-03-20
COMMENT  (c) Copyright Bigelow & Holmes 1986, 1985. Lucida is a registered
COMMENT  trademark of Bigelow & Holmes. See LEGAL NOTICE file for terms 
COMMENT  of the license. 
FONT -B&H-LucidaBright-DemiBold-R-Normal--11-80-100-100-P-66-ISO10646-1
SIZE 8 100 100
FONTBOUNDINGBOX 19 20 -6 -5
STARTPROPERTIES 22
COMMENT Begin LogicalFontDescription
FONTNAME_REGISTRY ""
FOUNDRY "B&H"
FAMILY_NAME "LucidaBright"
WEIGHT_NAME "DemiBold"
SLANT "R"
SETWIDTH_NAME "Normal"
ADD_STYLE_NAME ""
PIXEL_SIZE 11
POINT_SIZE 80
RESOLUTION_X 100
RESOLUTION_Y 100
SPACING "P"
AVERAGE_WIDTH 66
CHARSET_REGISTRY "ISO10646"
CHARSET_ENCODING "1"
COMMENT END LogicalFontDescription
FONT_ASCENT 10
FONT_DESCENT 3
DEFAULT_CHAR 0
COPYRIGHT "Copyright Bigelow & Holmes 1986, 1985."
FACE_NAME "Lucida Bright Demibold"
X_HEIGHT 6
CAP_HEIGHT 9
ENDPROPERTIES
CHARS 756
STARTCHAR char0
ENCODING 0
SWIDTH 798 0
DWIDTH 9 0
BBX 9 9 0 0
BITMAP
AA80
0000
8080
0000
8080
0000
8080
0000
AA80
ENDCHAR
STARTCHAR space
ENCODING 32
SWIDTH 333 0
DWIDTH 4 0
BBX 1 1 0 0
BITMAP
00
ENDCHAR
STARTCHAR exclam
ENCODING 33
SWIDTH 265 0
DWIDTH 3 0
BBX 2 9 0 0
BITMAP
C0
C0
C0
C0
40
40
00
C0
C0
ENDCHAR
STARTCHAR quotedbl
ENCODING 34
SWIDTH 461 0
DWIDTH 5 0
BBX 5 4 0 5
BITMAP
D8
D8
50
50
ENDCHAR
STARTCHAR numbersign
ENCODING 35
SWIDTH 663 0
DWIDTH 7 0
BBX 7 9 0 0
BITMAP
14
24
7E
28
28
FC
48
50
50
ENDCHAR
STARTCHAR dollar
ENCODING 36
SWIDTH 623 0
DWIDTH 7 0
BBX 5 10 1 -1
BITMAP
78
E8
E0
60
30
38
38
B8
F0
20
ENDCHAR
STARTCHAR percent
ENCODING 37
SWIDTH 759 0
DWIDTH 8 0
BBX 8 9 0 0
BITMAP
63
F2
F4
F8
78
16
2F
4F
C6
ENDCHAR
STARTCHAR ampersand
ENCODING 38
SWIDTH 765 0
DWIDTH 8 0
BBX 8 9 0 0
BITMAP
38
6C
6C
30
73
DA
CE
EE
7F
ENDCHAR
STARTCHAR quotesingle
ENCODING 39
SWIDTH 253 0
DWIDTH 3 0
BBX 3 4 0 5
BITMAP
E0
E0
40
40
ENDCHAR
STARTCHAR parenleft
ENCODING 40
SWIDTH 327 0
DWIDTH 4 0
BBX 3 11 0 -2
BITMAP
20
40
40
C0
C0
C0
C0
C0
40
40
20
ENDCHAR
STARTCHAR parenright
ENCODING 41
SWIDTH 327 0
DWIDTH 4 0
BBX 3 11 0 -2
BITMAP
80
40
40
60
60
60
60
60
40
40
80
ENDCHAR
STARTCHAR asterisk
ENCODING 42
SWIDTH 434 0
DWIDTH 5 0
BBX 4 4 0 5
BITMAP
60
F0
E0
70
ENDCHAR
STARTCHAR plus
ENCODING 43
SWIDTH 623 0
DWIDTH 7 0
BBX 7 8 0 0
BITMAP
10
10
10
10
FE
10
10
10
ENDCHAR
STARTCHAR comma
ENCODING 44
SWIDTH 265 0
DWIDTH 3 0
BBX 2 4 0 -2
BITMAP
C0
C0
C0
C0
ENDCHAR
STARTCHAR hyphen
ENCODING 45
SWIDTH 289 0
DWIDTH 3 0
BBX 3 2 0 2
BITMAP
E0
E0
ENDCHAR
STARTCHAR period
ENCODING 46
SWIDTH 265 0
DWIDTH 3 0
BBX 2 2 0 0
BITMAP
C0
C0
ENDCHAR
STARTCHAR slash
ENCODING 47
SWIDTH 527 0
DWIDTH 6 0
BBX 6 11 0 -2
BITMAP
04
08
08
10
10
30
20
20
40
40
80
ENDCHAR
STARTCHAR zero
ENCODING 48
SWIDTH 623 0
DWIDTH 7 0
BBX 6 9 0 0
BITMAP
30
48
CC
CC
CC
CC
CC
48
30
ENDCHAR
STARTCHAR one
ENCODING 49
SWIDTH 623 0
DWIDTH 7 0
BBX 4 9 2 0
BITMAP
E0
60
60
60
60
60
60
60
F0
ENDCHAR
STARTCHAR two
ENCODING 50
SWIDTH 623 0
DWIDTH 7 0
BBX 6 9 0 0
BITMAP
F8
8C
0C
0C
18
20
40
FC
FC
ENDCHAR
STARTCHAR three
ENCODING 51
SWIDTH 623 0
DWIDTH 7 0
BBX 6 9 0 0
BITMAP
F8
8C
0C
08
70
1C
0C
8C
F8
ENDCHAR
STARTCHAR four
ENCODING 52
SWIDTH 623 0
DWIDTH 7 0
BBX 7 9 0 0
BITMAP
0C
1C
2C
4C
FE
FE
0C
0C
1E
ENDCHAR
STARTCHAR five
ENCODING 53
SWIDTH 623 0
DWIDTH 7 0
BBX 5 9 1 0
BITMAP
F8
F8
80
80
F0
38
18
98
F0
ENDCHAR
STARTCHAR six
ENCODING 54
SWIDTH 623 0
DWIDTH 7 0
BBX 6 9 0 0
BITMAP
3C
64
C0
F8
CC
CC
CC
4C
38
ENDCHAR
STARTCHAR seven
ENCODING 55
SWIDTH 623 0
DWIDTH 7 0
BBX 5 9 1 0
BITMAP
F8
F8
10
10
20
60
40
C0
C0
ENDCHAR
STARTCHAR eight
ENCODING 56
SWIDTH 623 0
DWIDTH 7 0
BBX 6 9 0 0
BITMAP
78
CC
CC
68
38
CC
CC
CC
78
ENDCHAR
STARTCHAR nine
ENCODING 57
SWIDTH 623 0
DWIDTH 7 0
BBX 6 9 0 0
BITMAP
70
C8
CC
CC
CC
7C
0C
98
F0
ENDCHAR
STARTCHAR colon
ENCODING 58
SWIDTH 265 0
DWIDTH 3 0
BBX 2 6 0 0
BITMAP
C0
C0
00
00
C0
C0
ENDCHAR
STARTCHAR semicolon
ENCODING 59
SWIDTH 265 0
DWIDTH 3 0
BBX 2 8 0 -2
BITMAP
C0
C0
00
00
C0
C0
C0
80
ENDCHAR
STARTCHAR less
ENCODING 60
SWIDTH 623 0
DWIDTH 7 0
BBX 6 8 0 0
BITMAP
04
0C
30
C0
40
30
08
04
ENDCHAR
STARTCHAR equal
ENCODING 61
SWIDTH 623 0
DWIDTH 7 0
BBX 6 3 0 2
BITMAP
FC
00
FC
ENDCHAR
STARTCHAR greater
ENCODING 62
SWIDTH 623 0
DWIDTH 7 0
BBX 6 8 0 0
BITMAP
80
C0
30
18
0C
30
40
80
ENDCHAR
STARTCHAR question
ENCODING 63
SWIDTH 505 0
DWIDTH 6 0
BBX 5 9 0 0
BITMAP
F0
98
18
10
20
60
60
60
60
ENDCHAR
STARTCHAR at
ENCODING 64
SWIDTH 861 0
DWIDTH 9 0
BBX 9 9 1 0
BITMAP
1E00
2100
5880
9E80
B280
B680
BB80
4000
3E00
ENDCHAR
STARTCHAR A
ENCODING 65
SWIDTH 795 0
DWIDTH 9 0
BBX 9 9 0 0
BITMAP
0800
1C00
1C00
3E00
2600
3F00
4300
4300
C380
ENDCHAR
STARTCHAR B
ENCODING 66
SWIDTH 639 0
DWIDTH 7 0
BBX 6 9 0 0
BITMAP
F8
6C
6C
68
70
6C
6C
6C
F8
ENDCHAR
STARTCHAR C
ENCODING 67
SWIDTH 711 0
DWIDTH 8 0
BBX 7 9 0 0
BITMAP
3E
62
C0
C0
C0
C0
C0
62
3E
ENDCHAR
STARTCHAR D
ENCODING 68
SWIDTH 794 0
DWIDTH 9 0
BBX 8 9 0 0
BITMAP
FC
66
63
63
63
63
63
66
FC
ENDCHAR
STARTCHAR E
ENCODING 69
SWIDTH 601 0
DWIDTH 7 0
BBX 6 9 0 0
BITMAP
FC
64
60
68
78
68
60
64
FC
ENDCHAR
STARTCHAR F
ENCODING 70
SWIDTH 584 0
DWIDTH 6 0
BBX 6 9 0 0
BITMAP
FC
64
60
68
78
68
60
60
E0
ENDCHAR
STARTCHAR G
ENCODING 71
SWIDTH 753 0
DWIDTH 8 0
BBX 8 9 0 0
BITMAP
3E
62
C0
C0
C0
CF
C6
66
3E
ENDCHAR
STARTCHAR H
ENCODING 72
SWIDTH 798 0
DWIDTH 9 0
BBX 9 9 0 0
BITMAP
F780
6300
6300
6300
7F00
6300
6300
6300
F780
ENDCHAR
STARTCHAR I
ENCODING 73
SWIDTH 349 0
DWIDTH 4 0
BBX 4 9 0 0
BITMAP
F0
60
60
60
60
60
60
60
F0
ENDCHAR
STARTCHAR J
ENCODING 74
SWIDTH 452 0
DWIDTH 5 0
BBX 5 11 0 -2
BITMAP
78
30
30
30
30
30
30
30
30
B0
E0
ENDCHAR
STARTCHAR K
ENCODING 75
SWIDTH 747 0
DWIDTH 8 0
BBX 8 9 0 0
BITMAP
F2
66
6C
78
78
7C
6E
66
F7
ENDCHAR
STARTCHAR L
ENCODING 76
SWIDTH 584 0
DWIDTH 6 0
BBX 7 9 0 0
BITMAP
F0
60
60
60
60
60
60
62
FE
ENDCHAR
STARTCHAR M
ENCODING 77
SWIDTH 904 0
DWIDTH 10 0
BBX 10 9 0 0
BITMAP
E1C0
7180
7380
7380
5D80
5D80
4D80
4980
E3C0
ENDCHAR
STARTCHAR N
ENCODING 78
SWIDTH 788 0
DWIDTH 9 0
BBX 8 9 0 0
BITMAP
E7
62
72
72
5A
5E
4E
46
E6
ENDCHAR
STARTCHAR O
ENCODING 79
SWIDTH 810 0
DWIDTH 9 0
BBX 8 9 0 0
BITMAP
3C
66
C3
C3
C3
C3
C3
66
3C
ENDCHAR
STARTCHAR P
ENCODING 80
SWIDTH 614 0
DWIDTH 7 0
BBX 6 9 0 0
BITMAP
F8
6C
6C
6C
78
60
60
60
F0
ENDCHAR
STARTCHAR Q
ENCODING 81
SWIDTH 810 0
DWIDTH 9 0
BBX 9 11 1 -2
BITMAP
3C00
6600
C300
C300
C300
C300
C300
6600
3C00
0780
0100
ENDCHAR
STARTCHAR R
ENCODING 82
SWIDTH 720 0
DWIDTH 8 0
BBX 7 9 1 0
BITMAP
F8
6C
6C
6C
78
78
6C
6E
FE
ENDCHAR
STARTCHAR S
ENCODING 83
SWIDTH 556 0
DWIDTH 6 0
BBX 6 9 0 0
BITMAP
78
C8
C0
E0
78
1C
0C
8C
F8
ENDCHAR
STARTCHAR T
ENCODING 84
SWIDTH 714 0
DWIDTH 8 0
BBX 8 9 0 0
BITMAP
FF
99
18
18
18
18
18
18
3C
ENDCHAR
STARTCHAR U
ENCODING 85
SWIDTH 747 0
DWIDTH 8 0
BBX 8 9 0 0
BITMAP
F7
62
62
62
62
62
62
62
3C
ENDCHAR
STARTCHAR V
ENCODING 86
SWIDTH 753 0
DWIDTH 8 0
BBX 8 9 0 0
BITMAP
E3
62
62
72
34
34
1C
18
18
ENDCHAR
STARTCHAR W
ENCODING 87
SWIDTH 955 0
DWIDTH 10 0
BBX 11 9 0 0
BITMAP
E660
6640
6640
6E40
7B80
3B80
3380
3100
1100
ENDCHAR
STARTCHAR X
ENCODING 88
SWIDTH 702 0
DWIDTH 8 0
BBX 8 9 0 0
BITMAP
F3
62
36
3C
18
2C
6E
46
CF
ENDCHAR
STARTCHAR Y
ENCODING 89
SWIDTH 717 0
DWIDTH 8 0
BBX 8 9 0 0
BITMAP
E3
62
72
34
38
18
18
18
3C
ENDCHAR
STARTCHAR Z
ENCODING 90
SWIDTH 639 0
DWIDTH 7 0
BBX 6 9 0 0
BITMAP
FC
8C
18
38
30
70
60
C4
FC
ENDCHAR
STARTCHAR bracketleft
ENCODING 91
SWIDTH 327 0
DWIDTH 4 0
BBX 3 11 0 -2
BITMAP
E0
C0
C0
C0
C0
C0
C0
C0
C0
C0
E0
ENDCHAR
STARTCHAR backslash
ENCODING 92
SWIDTH 527 0
DWIDTH 6 0
BBX 6 11 0 -2
BITMAP
80
40
40
20
20
30
10
10
08
08
04
ENDCHAR
STARTCHAR bracketright
ENCODING 93
SWIDTH 327 0
DWIDTH 4 0
BBX 3 11 0 -2
BITMAP
E0
60
60
60
60
60
60
60
60
60
E0
ENDCHAR
STARTCHAR asciicircum
ENCODING 94
SWIDTH 623 0
DWIDTH 7 0
BBX 6 8 0 1
BITMAP
10
30
30
30
48
48
C4
84
ENDCHAR
STARTCHAR underscore
ENCODING 95
SWIDTH 500 0
DWIDTH 5 0
BBX 5 1 0 -1
BITMAP
F8
ENDCHAR
STARTCHAR grave
ENCODING 96
SWIDTH 617 0
DWIDTH 7 0
BBX 3 2 2 7
BITMAP
C0
20
ENDCHAR
STARTCHAR a
ENCODING 97
SWIDTH 556 0
DWIDTH 6 0
BBX 6 6 0 0
BITMAP
70
18
F8
D8
D8
6C
ENDCHAR
STARTCHAR b
ENCODING 98
SWIDTH 640 0
DWIDTH 7 0
BBX 7 9 0 0
BITMAP
E0
60
60
6C
7E
66
66
66
7C
ENDCHAR
STARTCHAR c
ENCODING 99
SWIDTH 541 0
DWIDTH 6 0
BBX 5 6 0 0
BITMAP
78
C8
C0
C0
E0
78
ENDCHAR
STARTCHAR d
ENCODING 100
SWIDTH 652 0
DWIDTH 7 0
BBX 7 9 0 0
BITMAP
1C
0C
0C
7C
CC
CC
CC
FC
6E
ENDCHAR
STARTCHAR e
ENCODING 101
SWIDTH 568 0
DWIDTH 6 0
BBX 5 6 0 0
BITMAP
70
D8
F8
C0
E0
78
ENDCHAR
STARTCHAR f
ENCODING 102
SWIDTH 416 0
DWIDTH 5 0
BBX 5 9 0 0
BITMAP
38
68
60
F0
60
60
60
60
F0
ENDCHAR
STARTCHAR g
ENCODING 103
SWIDTH 599 0
DWIDTH 7 0
BBX 6 8 0 -2
BITMAP
7C
D8
D8
70
FC
7C
CC
F8
ENDCHAR
STARTCHAR h
ENCODING 104
SWIDTH 654 0
DWIDTH 7 0
BBX 7 9 0 0
BITMAP
E0
60
60
6C
7C
6C
6C
6C
FE
ENDCHAR
STARTCHAR i
ENCODING 105
SWIDTH 325 0
DWIDTH 4 0
BBX 4 9 0 0
BITMAP
60
60
00
E0
60
60
60
60
F0
ENDCHAR
STARTCHAR j
ENCODING 106
SWIDTH 355 0
DWIDTH 4 0
BBX 4 11 0 -2
BITMAP
30
30
00
70
30
30
30
30
30
B0
F0
ENDCHAR
STARTCHAR k
ENCODING 107
SWIDTH 654 0
DWIDTH 7 0
BBX 7 9 0 0
BITMAP
E0
60
60
64
6C
78
78
6C
FE
ENDCHAR
STARTCHAR l
ENCODING 108
SWIDTH 325 0
DWIDTH 4 0
BBX 4 9 0 0
BITMAP
E0
60
60
60
60
60
60
60
F0
ENDCHAR
STARTCHAR m
ENCODING 109
SWIDTH 967 0
DWIDTH 11 0
BBX 10 6 0 0
BITMAP
E980
7F80
6D80
6D80
6D80
FFC0
ENDCHAR
STARTCHAR n
ENCODING 110
SWIDTH 654 0
DWIDTH 7 0
BBX 7 6 0 0
BITMAP
EC
7C
6C
6C
6C
FE
ENDCHAR
STARTCHAR o
ENCODING 111
SWIDTH 617 0
DWIDTH 7 0
BBX 6 6 0 0
BITMAP
78
CC
CC
CC
CC
78
ENDCHAR
STARTCHAR p
ENCODING 112
SWIDTH 652 0
DWIDTH 7 0
BBX 7 8 0 -2
BITMAP
EC
7E
66
66
66
7C
60
F0
ENDCHAR
STARTCHAR q
ENCODING 113
SWIDTH 640 0
DWIDTH 7 0
BBX 7 8 0 -2
BITMAP
7C
CC
CC
CC
FC
6C
0C
1E
ENDCHAR
STARTCHAR r
ENCODING 114
SWIDTH 462 0
DWIDTH 5 0
BBX 5 6 0 0
BITMAP
E8
78
60
60
60
F0
ENDCHAR
STARTCHAR s
ENCODING 115
SWIDTH 525 0
DWIDTH 6 0
BBX 5 6 0 0
BITMAP
70
D0
F0
78
98
F0
ENDCHAR
STARTCHAR t
ENCODING 116
SWIDTH 389 0
DWIDTH 4 0
BBX 4 9 0 0
BITMAP
60
60
60
F0
60
60
60
60
70
ENDCHAR
STARTCHAR u
ENCODING 117
SWIDTH 654 0
DWIDTH 7 0
BBX 7 6 0 0
BITMAP
FC
6C
6C
6C
7C
6E
ENDCHAR
STARTCHAR v
ENCODING 118
SWIDTH 657 0
DWIDTH 7 0
BBX 7 6 0 0
BITMAP
E6
64
64
38
38
10
ENDCHAR
STARTCHAR w
ENCODING 119
SWIDTH 880 0
DWIDTH 10 0
BBX 10 6 0 0
BITMAP
E4C0
6E80
6E80
7F00
3300
3300
ENDCHAR
STARTCHAR x
ENCODING 120
SWIDTH 608 0
DWIDTH 7 0
BBX 7 6 0 0
BITMAP
F6
74
38
38
4C
CE
ENDCHAR
STARTCHAR y
ENCODING 121
SWIDTH 654 0
DWIDTH 7 0
BBX 7 8 0 -2
BITMAP
E6
64
64
38
38
10
10
60
ENDCHAR
STARTCHAR z
ENCODING 122
SWIDTH 584 0
DWIDTH 6 0
BBX 5 6 1 0
BITMAP
F8
B8
30
60
E8
F8
ENDCHAR
STARTCHAR braceleft
ENCODING 123
SWIDTH 366 0
DWIDTH 4 0
BBX 3 11 1 -2
BITMAP
60
60
60
C0
C0
80
C0
C0
60
60
60
ENDCHAR
STARTCHAR bar
ENCODING 124
SWIDTH 259 0
DWIDTH 3 0
BBX 1 11 1 -2
BITMAP
80
80
80
80
80
80
80
80
80
80
80
ENDCHAR
STARTCHAR braceright
ENCODING 125
SWIDTH 366 0
DWIDTH 4 0
BBX 3 11 0 -2
BITMAP
C0
C0
C0
60
60
20
60
60
C0
C0
C0
ENDCHAR
STARTCHAR asciitilde
ENCODING 126
SWIDTH 623 0
DWIDTH 7 0
BBX 6 3 0 2
BITMAP
64
B4
98
ENDCHAR
STARTCHAR space
ENCODING 160
SWIDTH 333 0
DWIDTH 4 0
BBX 1 1 0 0
BITMAP
00
ENDCHAR
STARTCHAR exclamdown
ENCODING 161
SWIDTH 265 0
DWIDTH 3 0
BBX 2 8 0 -2
BITMAP
C0
C0
40
40
C0
C0
C0
C0
ENDCHAR
STARTCHAR cent
ENCODING 162
SWIDTH 623 0
DWIDTH 7 0
BBX 6 9 0 0
BITMAP
10
7C
D4
D0
D0
D0
50
7C
10
ENDCHAR
STARTCHAR sterling
ENCODING 163
SWIDTH 623 0
DWIDTH 7 0
BBX 5 9 1 0
BITMAP
38
68
60
60
F0
60
40
F8
F8
ENDCHAR
STARTCHAR currency
ENCODING 164
SWIDTH 623 0
DWIDTH 7 0
BBX 7 9 0 0
BITMAP
82
7C
6C
44
44
44
6C
7C
82
ENDCHAR
STARTCHAR yen
ENCODING 165
SWIDTH 623 0
DWIDTH 7 0
BBX 8 9 0 0
BITMAP
F3
62
76
3C
7C
18
7C
18
3C
ENDCHAR
STARTCHAR brokenbar
ENCODING 166
SWIDTH 259 0
DWIDTH 3 0
BBX 1 11 1 -2
BITMAP
80
80
80
80
80
00
80
80
80
80
80
ENDCHAR
STARTCHAR section
ENCODING 167
SWIDTH 623 0
DWIDTH 7 0
BBX 5 11 1 -2
BITMAP
78
C8
C0
70
F8
D8
F8
70
18
98
F0
ENDCHAR
STARTCHAR dieresis
ENCODING 168
SWIDTH 617 0
DWIDTH 7 0
BBX 3 2 2 7
BITMAP
A0
A0
ENDCHAR
STARTCHAR copyright
ENCODING 169
SWIDTH 855 0
DWIDTH 9 0
BBX 8 9 1 0
BITMAP
3C
66
DB
B9
B1
B1
DB
66
3C
ENDCHAR
STARTCHAR ordfeminine
ENCODING 170
SWIDTH 488 0
DWIDTH 5 0
BBX 6 5 0 4
BITMAP
F8
18
78
D8
EC
ENDCHAR
STARTCHAR guillemotleft
ENCODING 171
SWIDTH 566 0
DWIDTH 6 0
BBX 5 6 0 0
BITMAP
28
58
F0
D0
48
28
ENDCHAR
STARTCHAR logicalnot
ENCODING 172
SWIDTH 623 0
DWIDTH 7 0
BBX 6 3 0 2
BITMAP
FC
04
04
ENDCHAR
STARTCHAR hyphen
ENCODING 173
SWIDTH 289 0
DWIDTH 3 0
BBX 3 2 0 2
BITMAP
E0
E0
ENDCHAR
STARTCHAR registered
ENCODING 174
SWIDTH 623 0
DWIDTH 7 0
BBX 6 6 0 3
BITMAP
78
CC
B4
B4
EC
78
ENDCHAR
STARTCHAR macron
ENCODING 175
SWIDTH 617 0
DWIDTH 7 0
BBX 3 1 2 8
BITMAP
E0
ENDCHAR
STARTCHAR degree
ENCODING 176
SWIDTH 259 0
DWIDTH 3 0
BBX 2 3 0 6
BITMAP
C0
C0
C0
ENDCHAR
STARTCHAR plusminus
ENCODING 177
SWIDTH 623 0
DWIDTH 7 0
BBX 7 8 0 0
BITMAP
10
10
10
FE
10
10
00
FE
ENDCHAR
STARTCHAR twosuperior
ENCODING 178
SWIDTH 374 0
DWIDTH 4 0
BBX 3 5 -6 4
BITMAP
E0
A0
40
C0
E0
ENDCHAR
STARTCHAR threesuperior
ENCODING 179
SWIDTH 374 0
DWIDTH 4 0
BBX 3 5 -6 4
BITMAP
E0
A0
40
A0
E0
ENDCHAR
STARTCHAR acute
ENCODING 180
SWIDTH 617 0
DWIDTH 7 0
BBX 3 2 2 7
BITMAP
60
80
ENDCHAR
STARTCHAR mu
ENCODING 181
SWIDTH 705 0
DWIDTH 8 0
BBX 7 8 0 -2
BITMAP
FC
6C
6C
6C
7C
7E
60
60
ENDCHAR
STARTCHAR paragraph
ENCODING 182
SWIDTH 623 0
DWIDTH 7 0
BBX 4 11 1 -2
BITMAP
70
F0
F0
F0
70
30
30
30
30
30
30
ENDCHAR
STARTCHAR periodcentered
ENCODING 183
SWIDTH 623 0
DWIDTH 7 0
BBX 1 2 3 2
BITMAP
80
80
ENDCHAR
STARTCHAR cedilla
ENCODING 184
SWIDTH 617 0
DWIDTH 7 0
BBX 2 2 3 -2
BITMAP
80
C0
ENDCHAR
STARTCHAR onesuperior
ENCODING 185
SWIDTH 374 0
DWIDTH 4 0
BBX 3 5 -6 4
BITMAP
C0
40
40
40
E0
ENDCHAR
STARTCHAR ordmasculine
ENCODING 186
SWIDTH 488 0
DWIDTH 5 0
BBX 5 5 0 4
BITMAP
70
D8
D8
D8
70
ENDCHAR
STARTCHAR guillemotright
ENCODING 187
SWIDTH 566 0
DWIDTH 6 0
BBX 5 6 1 0
BITMAP
A0
90
58
78
D0
A0
ENDCHAR
STARTCHAR onequarter
ENCODING 188
SWIDTH 803 0
DWIDTH 9 0
BBX 9 9 4 0
BITMAP
6380
2700
2600
2C00
7F00
1F00
3780
7100
E380
ENDCHAR
STARTCHAR onehalf
ENCODING 189
SWIDTH 803 0
DWIDTH 9 0
BBX 9 9 4 0
BITMAP
6380
2700
2600
2C00
7F80
1A80
3100
7300
E380
ENDCHAR
STARTCHAR threequarters
ENCODING 190
SWIDTH 803 0
DWIDTH 9 0
BBX 9 9 4 0
BITMAP
7380
5700
2600
5C00
7F00
1F00
3780
7100
E380
ENDCHAR
STARTCHAR questiondown
ENCODING 191
SWIDTH 505 0
DWIDTH 6 0
BBX 5 8 0 -2
BITMAP
30
30
30
20
40
C0
C8
78
ENDCHAR
STARTCHAR Agrave
ENCODING 192
SWIDTH 795 0
DWIDTH 9 0
BBX 9 11 0 0
BITMAP
1800
0400
0800
1C00
1C00
3E00
2600
3F00
4300
4300
C380
ENDCHAR
STARTCHAR Aacute
ENCODING 193
SWIDTH 795 0
DWIDTH 9 0
BBX 9 11 0 0
BITMAP
0C00
1000
0800
1C00
1C00
3E00
2600
3F00
4300
4300
C380
ENDCHAR
STARTCHAR Acircumflex
ENCODING 194
SWIDTH 795 0
DWIDTH 9 0
BBX 9 11 0 0
BITMAP
0C00
1200
0800
1C00
1C00
3E00
2600
3F00
4300
4300
C380
ENDCHAR
STARTCHAR Atilde
ENCODING 195
SWIDTH 795 0
DWIDTH 9 0
BBX 9 11 0 0
BITMAP
1E00
1E00
0800
1C00
1C00
3E00
2600
3F00
4300
4300
C380
ENDCHAR
STARTCHAR Adieresis
ENCODING 196
SWIDTH 795 0
DWIDTH 9 0
BBX 9 11 0 0
BITMAP
1400
1400
0800
1C00
1C00
3E00
2600
3F00
4300
4300
C380
ENDCHAR
STARTCHAR Aring
ENCODING 197
SWIDTH 795 0
DWIDTH 9 0
BBX 9 11 0 0
BITMAP
0C00
0C00
0800
1C00
1C00
3E00
2600
3F00
4300
4300
C380
ENDCHAR
STARTCHAR AE
ENCODING 198
SWIDTH 959 0
DWIDTH 11 0
BBX 10 9 0 0
BITMAP
0FC0
0E40
1E80
1780
2680
3E00
4600
C640
CFC0
ENDCHAR
STARTCHAR Ccedilla
ENCODING 199
SWIDTH 711 0
DWIDTH 8 0
BBX 7 11 0 -2
BITMAP
3E
62
C0
C0
C0
C0
C0
62
3E
10
18
ENDCHAR
STARTCHAR Egrave
ENCODING 200
SWIDTH 601 0
DWIDTH 7 0
BBX 6 11 0 0
BITMAP
60
10
FC
64
60
68
78
68
60
64
FC
ENDCHAR
STARTCHAR Eacute
ENCODING 201
SWIDTH 601 0
DWIDTH 7 0
BBX 6 11 0 0
BITMAP
18
20
FC
64
60
68
78
68
60
64
FC
ENDCHAR
STARTCHAR Ecircumflex
ENCODING 202
SWIDTH 601 0
DWIDTH 7 0
BBX 6 11 0 0
BITMAP
30
48
FC
64
60
68
78
68
60
64
FC
ENDCHAR
STARTCHAR Edieresis
ENCODING 203
SWIDTH 601 0
DWIDTH 7 0
BBX 6 11 0 0
BITMAP
28
28
FC
64
60
68
78
68
60
64
FC
ENDCHAR
STARTCHAR Igrave
ENCODING 204
SWIDTH 349 0
DWIDTH 4 0
BBX 4 11 0 0
BITMAP
C0
20
F0
60
60
60
60
60
60
60
F0
ENDCHAR
STARTCHAR Iacute
ENCODING 205
SWIDTH 349 0
DWIDTH 4 0
BBX 4 11 0 0
BITMAP
30
40
F0
60
60
60
60
60
60
60
F0
ENDCHAR
STARTCHAR Icircumflex
ENCODING 206
SWIDTH 349 0
DWIDTH 4 0
BBX 4 11 0 0
BITMAP
60
90
F0
60
60
60
60
60
60
60
F0
ENDCHAR
STARTCHAR Idieresis
ENCODING 207
SWIDTH 349 0
DWIDTH 4 0
BBX 4 11 0 0
BITMAP
A0
A0
F0
60
60
60
60
60
60
60
F0
ENDCHAR
STARTCHAR Eth
ENCODING 208
SWIDTH 794 0
DWIDTH 9 0
BBX 8 9 0 0
BITMAP
FC
66
63
63
FB
63
63
66
FC
ENDCHAR
STARTCHAR Ntilde
ENCODING 209
SWIDTH 788 0
DWIDTH 9 0
BBX 8 11 0 0
BITMAP
3C
3C
E7
62
72
72
5A
5E
4E
46
E6
ENDCHAR
STARTCHAR Ograve
ENCODING 210
SWIDTH 810 0
DWIDTH 9 0
BBX 8 11 0 0
BITMAP
30
08
3C
66
C3
C3
C3
C3
C3
66
3C
ENDCHAR
STARTCHAR Oacute
ENCODING 211
SWIDTH 810 0
DWIDTH 9 0
BBX 8 11 0 0
BITMAP
0C
10
3C
66
C3
C3
C3
C3
C3
66
3C
ENDCHAR
STARTCHAR Ocircumflex
ENCODING 212
SWIDTH 810 0
DWIDTH 9 0
BBX 8 11 0 0
BITMAP
18
24
3C
66
C3
C3
C3
C3
C3
66
3C
ENDCHAR
STARTCHAR Otilde
ENCODING 213
SWIDTH 810 0
DWIDTH 9 0
BBX 8 11 0 0
BITMAP
3C
3C
3C
66
C3
C3
C3
C3
C3
66
3C
ENDCHAR
STARTCHAR Odieresis
ENCODING 214
SWIDTH 810 0
DWIDTH 9 0
BBX 8 11 0 0
BITMAP
28
28
3C
66
C3
C3
C3
C3
C3
66
3C
ENDCHAR
STARTCHAR multiply
ENCODING 215
SWIDTH 623 0
DWIDTH 7 0
BBX 6 8 0 0
BITMAP
84
4C
48
30
30
48
C8
84
ENDCHAR
STARTCHAR Oslash
ENCODING 216
SWIDTH 810 0
DWIDTH 9 0
BBX 8 9 0 0
BITMAP
3D
66
C7
CB
DB
D3
E3
66
BC
ENDCHAR
STARTCHAR Ugrave
ENCODING 217
SWIDTH 747 0
DWIDTH 8 0
BBX 8 11 0 0
BITMAP
30
08
F7
62
62
62
62
62
62
62
3C
ENDCHAR
STARTCHAR Uacute
ENCODING 218
SWIDTH 747 0
DWIDTH 8 0
BBX 8 11 0 0
BITMAP
0C
10
F7
62
62
62
62
62
62
62
3C
ENDCHAR
STARTCHAR Ucircumflex
ENCODING 219
SWIDTH 747 0
DWIDTH 8 0
BBX 8 11 0 0
BITMAP
18
24
F7
62
62
62
62
62
62
62
3C
ENDCHAR
STARTCHAR Udieresis
ENCODING 220
SWIDTH 747 0
DWIDTH 8 0
BBX 8 11 0 0
BITMAP
28
28
F7
62
62
62
62
62
62
62
3C
ENDCHAR
STARTCHAR Yacute
ENCODING 221
SWIDTH 717 0
DWIDTH 8 0
BBX 8 11 0 0
BITMAP
0C
10
E3
62
72
34
38
18
18
18
3C
ENDCHAR
STARTCHAR Thorn
ENCODING 222
SWIDTH 614 0
DWIDTH 7 0
BBX 6 9 0 0
BITMAP
F0
60
78
6C
6C
6C
78
60
F0
ENDCHAR
STARTCHAR germandbls
ENCODING 223
SWIDTH 700 0
DWIDTH 8 0
BBX 7 9 0 0
BITMAP
38
6C
68
70
78
7C
6E
76
FC
ENDCHAR
STARTCHAR agrave
ENCODING 224
SWIDTH 556 0
DWIDTH 6 0
BBX 6 8 0 0
BITMAP
60
10
70
18
F8
D8
D8
6C
ENDCHAR
STARTCHAR aacute
ENCODING 225
SWIDTH 556 0
DWIDTH 6 0
BBX 6 8 0 0
BITMAP
18
20
70
18
F8
D8
D8
6C
ENDCHAR
STARTCHAR acircumflex
ENCODING 226
SWIDTH 556 0
DWIDTH 6 0
BBX 6 8 0 0
BITMAP
30
48
70
18
F8
D8
D8
6C
ENDCHAR
STARTCHAR atilde
ENCODING 227
SWIDTH 556 0
DWIDTH 6 0
BBX 6 8 0 0
BITMAP
78
78
70
18
F8
D8
D8
6C
ENDCHAR
STARTCHAR adieresis
ENCODING 228
SWIDTH 556 0
DWIDTH 6 0
BBX 6 8 0 0
BITMAP
50
50
70
18
F8
D8
D8
6C
ENDCHAR
STARTCHAR aring
ENCODING 229
SWIDTH 556 0
DWIDTH 6 0
BBX 6 8 0 0
BITMAP
30
30
70
18
F8
D8
D8
6C
ENDCHAR
STARTCHAR ae
ENCODING 230
SWIDTH 858 0
DWIDTH 9 0
BBX 9 6 0 0
BITMAP
7700
0D80
7F80
CC00
CE00
7780
ENDCHAR
STARTCHAR ccedilla
ENCODING 231
SWIDTH 541 0
DWIDTH 6 0
BBX 5 8 0 -2
BITMAP
78
C8
C0
C0
E0
78
20
30
ENDCHAR
STARTCHAR egrave
ENCODING 232
SWIDTH 568 0
DWIDTH 6 0
BBX 5 8 0 0
BITMAP
60
10
70
D8
F8
C0
E0
78
ENDCHAR
STARTCHAR eacute
ENCODING 233
SWIDTH 568 0
DWIDTH 6 0
BBX 5 8 0 0
BITMAP
30
40
70
D8
F8
C0
E0
78
ENDCHAR
STARTCHAR ecircumflex
ENCODING 234
SWIDTH 568 0
DWIDTH 6 0
BBX 5 8 0 0
BITMAP
30
48
70
D8
F8
C0
E0
78
ENDCHAR
STARTCHAR edieresis
ENCODING 235
SWIDTH 568 0
DWIDTH 6 0
BBX 5 8 0 0
BITMAP
50
50
70
D8
F8
C0
E0
78
ENDCHAR
STARTCHAR igrave
ENCODING 236
SWIDTH 325 0
DWIDTH 4 0
BBX 4 8 0 0
BITMAP
C0
20
E0
60
60
60
60
F0
ENDCHAR
STARTCHAR iacute
ENCODING 237
SWIDTH 325 0
DWIDTH 4 0
BBX 4 8 0 0
BITMAP
30
40
E0
60
60
60
60
F0
ENDCHAR
STARTCHAR icircumflex
ENCODING 238
SWIDTH 325 0
DWIDTH 4 0
BBX 4 8 0 0
BITMAP
60
90
E0
60
60
60
60
F0
ENDCHAR
STARTCHAR idieresis
ENCODING 239
SWIDTH 325 0
DWIDTH 4 0
BBX 4 8 0 0
BITMAP
A0
A0
E0
60
60
60
60
F0
ENDCHAR
STARTCHAR eth
ENCODING 240
SWIDTH 652 0
DWIDTH 7 0
BBX 6 9 1 0
BITMAP
F0
20
D8
78
CC
CC
CC
CC
78
ENDCHAR
STARTCHAR ntilde
ENCODING 241
SWIDTH 654 0
DWIDTH 7 0
BBX 7 8 0 0
BITMAP
78
78
EC
7C
6C
6C
6C
FE
ENDCHAR
STARTCHAR ograve
ENCODING 242
SWIDTH 617 0
DWIDTH 7 0
BBX 6 8 0 0
BITMAP
60
10
78
CC
CC
CC
CC
78
ENDCHAR
STARTCHAR oacute
ENCODING 243
SWIDTH 617 0
DWIDTH 7 0
BBX 6 8 0 0
BITMAP
18
20
78
CC
CC
CC
CC
78
ENDCHAR
STARTCHAR ocircumflex
ENCODING 244
SWIDTH 617 0
DWIDTH 7 0
BBX 6 8 0 0
BITMAP
30
48
78
CC
CC
CC
CC
78
ENDCHAR
STARTCHAR otilde
ENCODING 245
SWIDTH 617 0
DWIDTH 7 0
BBX 6 8 0 0
BITMAP
78
78
78
CC
CC
CC
CC
78
ENDCHAR
STARTCHAR odieresis
ENCODING 246
SWIDTH 617 0
DWIDTH 7 0
BBX 6 8 0 0
BITMAP
50
50
78
CC
CC
CC
CC
78
ENDCHAR
STARTCHAR divide
ENCODING 247
SWIDTH 623 0
DWIDTH 7 0
BBX 8 6 0 0
BITMAP
18
18
00
FF
18
18
ENDCHAR
STARTCHAR oslash
ENCODING 248
SWIDTH 617 0
DWIDTH 7 0
BBX 6 6 0 0
BITMAP
74
CC
DC
EC
CC
B8
ENDCHAR
STARTCHAR ugrave
ENCODING 249
SWIDTH 654 0
DWIDTH 7 0
BBX 7 8 0 0
BITMAP
30
08
FC
6C
6C
6C
7C
6E
ENDCHAR
STARTCHAR uacute
ENCODING 250
SWIDTH 654 0
DWIDTH 7 0
BBX 7 8 0 0
BITMAP
18
20
FC
6C
6C
6C
7C
6E
ENDCHAR
STARTCHAR ucircumflex
ENCODING 251
SWIDTH 654 0
DWIDTH 7 0
BBX 7 8 0 0
BITMAP
18
24
FC
6C
6C
6C
7C
6E
ENDCHAR
STARTCHAR udieresis
ENCODING 252
SWIDTH 654 0
DWIDTH 7 0
BBX 7 8 0 0
BITMAP
28
28
FC
6C
6C
6C
7C
6E
ENDCHAR
STARTCHAR yacute
ENCODING 253
SWIDTH 654 0
DWIDTH 7 0
BBX 7 10 0 -2
BITMAP
18
20
E6
64
64
38
38
10
10
60
ENDCHAR
STARTCHAR thorn
ENCODING 254
SWIDTH 652 0
DWIDTH 7 0
BBX 7 11 0 -2
BITMAP
E0
60
60
6C
7E
66
66
66
7C
60
F0
ENDCHAR
STARTCHAR ydieresis
ENCODING 255
SWIDTH 654 0
DWIDTH 7 0
BBX 7 10 0 -2
BITMAP
28
28
E6
64
64
38
38
10
10
60
ENDCHAR
STARTCHAR Amacron
ENCODING 256
SWIDTH 795 0
DWIDTH 9 0
BBX 9 11 0 0
BITMAP
1C00
0000
0800
1C00
1C00
3E00
2600
3F00
4300
4300
C380
ENDCHAR
STARTCHAR amacron
ENCODING 257
SWIDTH 556 0
DWIDTH 6 0
BBX 6 8 0 0
BITMAP
38
00
70
18
F8
D8
D8
6C
ENDCHAR
STARTCHAR Abreve
ENCODING 258
SWIDTH 795 0
DWIDTH 9 0
BBX 9 12 0 0
BITMAP
1200
0C00
0000
0800
1C00
1C00
3E00
2600
3F00
4300
4300
C380
ENDCHAR
STARTCHAR abreve
ENCODING 259
SWIDTH 556 0
DWIDTH 6 0
BBX 6 9 0 0
BITMAP
48
30
00
70
18
F8
D8
D8
6C
ENDCHAR
STARTCHAR Aogonek
ENCODING 260
SWIDTH 795 0
DWIDTH 9 0
BBX 9 11 0 -2
BITMAP
0800
1C00
1C00
3E00
2600
3F00
4300
4300
C380
0C00
0C00
ENDCHAR
STARTCHAR aogonek
ENCODING 261
SWIDTH 556 0
DWIDTH 6 0
BBX 6 8 0 -2
BITMAP
70
18
F8
D8
D8
6C
30
30
ENDCHAR
STARTCHAR Cacute
ENCODING 262
SWIDTH 711 0
DWIDTH 8 0
BBX 7 12 0 0
BITMAP
0C
10
00
3E
62
C0
C0
C0
C0
C0
62
3E
ENDCHAR
STARTCHAR cacute
ENCODING 263
SWIDTH 541 0
DWIDTH 6 0
BBX 5 9 0 0
BITMAP
18
20
00
78
C8
C0
C0
E0
78
ENDCHAR
STARTCHAR Ccircumflex
ENCODING 264
SWIDTH 711 0
DWIDTH 8 0
BBX 7 12 0 0
BITMAP
18
24
00
3E
62
C0
C0
C0
C0
C0
62
3E
ENDCHAR
STARTCHAR ccircumflex
ENCODING 265
SWIDTH 541 0
DWIDTH 6 0
BBX 5 9 0 0
BITMAP
30
48
00
78
C8
C0
C0
E0
78
ENDCHAR
STARTCHAR Cdotaccent
ENCODING 266
SWIDTH 711 0
DWIDTH 8 0
BBX 7 12 0 0
BITMAP
10
10
00
3E
62
C0
C0
C0
C0
C0
62
3E
ENDCHAR
STARTCHAR cdotaccent
ENCODING 267
SWIDTH 541 0
DWIDTH 6 0
BBX 5 9 0 0
BITMAP
20
20
00
78
C8
C0
C0
E0
78
ENDCHAR
STARTCHAR Ccaron
ENCODING 268
SWIDTH 711 0
DWIDTH 8 0
BBX 7 12 0 0
BITMAP
24
18
00
3E
62
C0
C0
C0
C0
C0
62
3E
ENDCHAR
STARTCHAR ccaron
ENCODING 269
SWIDTH 541 0
DWIDTH 6 0
BBX 5 9 0 0
BITMAP
48
30
00
78
C8
C0
C0
E0
78
ENDCHAR
STARTCHAR Dcaron
ENCODING 270
SWIDTH 794 0
DWIDTH 9 0
BBX 8 12 0 0
BITMAP
24
18
00
FC
66
63
63
63
63
63
66
FC
ENDCHAR
STARTCHAR dcaron
ENCODING 271
SWIDTH 884 0
DWIDTH 10 0
BBX 9 9 0 0
BITMAP
1D80
0D80
0D80
7D80
CC00
CC00
CC00
FC00
6E00
ENDCHAR
STARTCHAR Dcroat
ENCODING 272
SWIDTH 794 0
DWIDTH 9 0
BBX 8 9 0 0
BITMAP
FC
66
63
63
FB
63
63
66
FC
ENDCHAR
STARTCHAR dcroat
ENCODING 273
SWIDTH 652 0
DWIDTH 7 0
BBX 7 9 0 0
BITMAP
1C
0C
1E
7C
CC
CC
CC
FC
6E
ENDCHAR
STARTCHAR Emacron
ENCODING 274
SWIDTH 601 0
DWIDTH 7 0
BBX 6 11 0 0
BITMAP
70
00
FC
64
60
68
78
68
60
64
FC
ENDCHAR
STARTCHAR emacron
ENCODING 275
SWIDTH 568 0
DWIDTH 6 0
BBX 5 8 0 0
BITMAP
70
00
70
D8
F8
C0
E0
78
ENDCHAR
STARTCHAR Ebreve
ENCODING 276
SWIDTH 601 0
DWIDTH 7 0
BBX 6 12 0 0
BITMAP
48
30
00
FC
64
60
68
78
68
60
64
FC
ENDCHAR
STARTCHAR ebreve
ENCODING 277
SWIDTH 568 0
DWIDTH 6 0
BBX 5 9 0 0
BITMAP
48
30
00
70
D8
F8
C0
E0
78
ENDCHAR
STARTCHAR Edotaccent
ENCODING 278
SWIDTH 601 0
DWIDTH 7 0
BBX 6 12 0 0
BITMAP
20
20
00
FC
64
60
68
78
68
60
64
FC
ENDCHAR
STARTCHAR edotaccent
ENCODING 279
SWIDTH 568 0
DWIDTH 6 0
BBX 5 9 0 0
BITMAP
20
20
00
70
D8
F8
C0
E0
78
ENDCHAR
STARTCHAR Eogonek
ENCODING 280
SWIDTH 601 0
DWIDTH 7 0
BBX 6 11 0 -2
BITMAP
FC
64
60
68
78
68
60
64
FC
30
30
ENDCHAR
STARTCHAR eogonek
ENCODING 281
SWIDTH 568 0
DWIDTH 6 0
BBX 5 8 0 -2
BITMAP
70
D8
F8
C0
E0
78
60
60
ENDCHAR
STARTCHAR Ecaron
ENCODING 282
SWIDTH 601 0
DWIDTH 7 0
BBX 6 12 0 0
BITMAP
48
30
00
FC
64
60
68
78
68
60
64
FC
ENDCHAR
STARTCHAR ecaron
ENCODING 283
SWIDTH 568 0
DWIDTH 6 0
BBX 5 9 0 0
BITMAP
48
30
00
70
D8
F8
C0
E0
78
ENDCHAR
STARTCHAR Gcircumflex
ENCODING 284
SWIDTH 753 0
DWIDTH 8 0
BBX 8 12 0 0
BITMAP
18
24
00
3E
62
C0
C0
C0
CF
C6
66
3E
ENDCHAR
STARTCHAR gcircumflex
ENCODING 285
SWIDTH 599 0
DWIDTH 7 0
BBX 6 11 0 -2
BITMAP
30
48
00
7C
D8
D8
70
FC
7C
CC
F8
ENDCHAR
STARTCHAR Gbreve
ENCODING 286
SWIDTH 753 0
DWIDTH 8 0
BBX 8 12 0 0
BITMAP
24
18
00
3E
62
C0
C0
C0
CF
C6
66
3E
ENDCHAR
STARTCHAR gbreve
ENCODING 287
SWIDTH 599 0
DWIDTH 7 0
BBX 6 11 0 -2
BITMAP
48
30
00
7C
D8
D8
70
FC
7C
CC
F8
ENDCHAR
STARTCHAR Gdotaccent
ENCODING 288
SWIDTH 753 0
DWIDTH 8 0
BBX 8 12 0 0
BITMAP
10
10
00
3E
62
C0
C0
C0
CF
C6
66
3E
ENDCHAR
STARTCHAR gdotaccent
ENCODING 289
SWIDTH 599 0
DWIDTH 7 0
BBX 6 11 0 -2
BITMAP
20
20
00
7C
D8
D8
70
FC
7C
CC
F8
ENDCHAR
STARTCHAR Gcommaaccent
ENCODING 290
SWIDTH 753 0
DWIDTH 8 0
BBX 8 14 0 -5
BITMAP
3E
62
C0
C0
C0
CF
C6
66
3E
00
18
18
18
18
ENDCHAR
STARTCHAR gcommaaccent
ENCODING 291
SWIDTH 599 0
DWIDTH 7 0
BBX 6 13 0 -2
BITMAP
30
30
30
30
00
7C
D8
D8
70
FC
7C
CC
F8
ENDCHAR
STARTCHAR Hcircumflex
ENCODING 292
SWIDTH 798 0
DWIDTH 9 0
BBX 9 12 0 0
BITMAP
0C00
1200
0000
F780
6300
6300
6300
7F00
6300
6300
6300
F780
ENDCHAR
STARTCHAR hcircumflex
ENCODING 293
SWIDTH 654 0
DWIDTH 7 0
BBX 7 12 0 0
BITMAP
60
90
00
E0
60
60
6C
7C
6C
6C
6C
FE
ENDCHAR
STARTCHAR Hbar
ENCODING 294
SWIDTH 798 0
DWIDTH 9 0
BBX 9 9 0 0
BITMAP
F780
6300
FF80
6300
7F00
6300
6300
6300
F780
ENDCHAR
STARTCHAR hbar
ENCODING 295
SWIDTH 654 0
DWIDTH 7 0
BBX 7 9 0 0
BITMAP
E0
60
F0
6C
7C
6C
6C
6C
FE
ENDCHAR
STARTCHAR Itilde
ENCODING 296
SWIDTH 349 0
DWIDTH 4 0
BBX 4 12 0 0
BITMAP
F0
F0
00
F0
60
60
60
60
60
60
60
F0
ENDCHAR
STARTCHAR itilde
ENCODING 297
SWIDTH 325 0
DWIDTH 4 0
BBX 4 9 0 0
BITMAP
F0
F0
00
E0
60
60
60
60
F0
ENDCHAR
STARTCHAR Imacron
ENCODING 298
SWIDTH 349 0
DWIDTH 4 0
BBX 4 11 0 0
BITMAP
70
00
F0
60
60
60
60
60
60
60
F0
ENDCHAR
STARTCHAR imacron
ENCODING 299
SWIDTH 325 0
DWIDTH 4 0
BBX 4 8 0 0
BITMAP
E0
00
E0
60
60
60
60
F0
ENDCHAR
STARTCHAR Ibreve
ENCODING 300
SWIDTH 349 0
DWIDTH 4 0
BBX 4 12 0 0
BITMAP
90
60
00
F0
60
60
60
60
60
60
60
F0
ENDCHAR
STARTCHAR ibreve
ENCODING 301
SWIDTH 325 0
DWIDTH 4 0
BBX 4 9 0 0
BITMAP
90
60
00
E0
60
60
60
60
F0
ENDCHAR
STARTCHAR Iogonek
ENCODING 302
SWIDTH 349 0
DWIDTH 4 0
BBX 4 11 0 -2
BITMAP
F0
60
60
60
60
60
60
60
F0
60
60
ENDCHAR
STARTCHAR iogonek
ENCODING 303
SWIDTH 325 0
DWIDTH 4 0
BBX 4 11 0 -2
BITMAP
60
60
00
E0
60
60
60
60
F0
60
60
ENDCHAR
STARTCHAR Idotaccent
ENCODING 304
SWIDTH 349 0
DWIDTH 4 0
BBX 4 12 0 0
BITMAP
20
20
00
F0
60
60
60
60
60
60
60
F0
ENDCHAR
STARTCHAR dotlessi
ENCODING 305
SWIDTH 325 0
DWIDTH 4 0
BBX 4 6 0 0
BITMAP
E0
60
60
60
60
F0
ENDCHAR
STARTCHAR IJ
ENCODING 306
SWIDTH 784 0
DWIDTH 9 0
BBX 9 11 0 -2
BITMAP
F780
6300
6300
6300
6300
6300
6300
6300
F300
0B00
0E00
ENDCHAR
STARTCHAR ij
ENCODING 307
SWIDTH 664 0
DWIDTH 8 0
BBX 8 11 0 -2
BITMAP
63
63
00
E7
63
63
63
63
F3
0B
0F
ENDCHAR
STARTCHAR Jcircumflex
ENCODING 308
SWIDTH 452 0
DWIDTH 5 0
BBX 5 14 0 -2
BITMAP
30
48
00
78
30
30
30
30
30
30
30
30
B0
E0
ENDCHAR
STARTCHAR jcircumflex
ENCODING 309
SWIDTH 355 0
DWIDTH 4 0
BBX 5 11 0 -2
BITMAP
30
48
00
70
30
30
30
30
30
B0
F0
ENDCHAR
STARTCHAR Kcommaaccent
ENCODING 310
SWIDTH 747 0
DWIDTH 8 0
BBX 8 14 0 -5
BITMAP
F2
66
6C
78
78
7C
6E
66
F7
00
18
18
18
18
ENDCHAR
STARTCHAR kcommaaccent
ENCODING 311
SWIDTH 654 0
DWIDTH 7 0
BBX 7 14 0 -5
BITMAP
E0
60
60
64
6C
78
78
6C
FE
00
30
30
30
30
ENDCHAR
STARTCHAR kgreenlandic
ENCODING 312
SWIDTH 654 0
DWIDTH 7 0
BBX 7 6 0 0
BITMAP
64
6C
78
78
6C
FE
ENDCHAR
STARTCHAR Lacute
ENCODING 313
SWIDTH 584 0
DWIDTH 6 0
BBX 7 12 0 0
BITMAP
18
20
00
F0
60
60
60
60
60
60
62
FE
ENDCHAR
STARTCHAR lacute
ENCODING 314
SWIDTH 325 0
DWIDTH 4 0
BBX 4 12 0 0
BITMAP
30
40
00
E0
60
60
60
60
60
60
60
F0
ENDCHAR
STARTCHAR Lcommaaccent
ENCODING 315
SWIDTH 584 0
DWIDTH 6 0
BBX 7 14 0 -5
BITMAP
F0
60
60
60
60
60
60
62
FE
00
30
30
30
30
ENDCHAR
STARTCHAR lcommaaccent
ENCODING 316
SWIDTH 325 0
DWIDTH 4 0
BBX 4 14 0 -5
BITMAP
E0
60
60
60
60
60
60
60
F0
00
60
60
60
60
ENDCHAR
STARTCHAR Lcaron
ENCODING 317
SWIDTH 820 0
DWIDTH 9 0
BBX 8 9 0 0
BITMAP
F3
63
63
63
60
60
60
62
FE
ENDCHAR
STARTCHAR lcaron
ENCODING 318
SWIDTH 574 0
DWIDTH 7 0
BBX 6 9 0 0
BITMAP
EC
6C
6C
6C
60
60
60
60
F0
ENDCHAR
STARTCHAR Ldot
ENCODING 319
SWIDTH 1178 0
DWIDTH 13 0
BBX 10 9 0 0
BITMAP
F000
6000
6000
6000
6000
6040
6040
6200
FE00
ENDCHAR
STARTCHAR ldot
ENCODING 320
SWIDTH 932 0
DWIDTH 11 0
BBX 8 9 0 0
BITMAP
E0
60
60
60
60
61
61
60
F0
ENDCHAR
STARTCHAR Lslash
ENCODING 321
SWIDTH 584 0
DWIDTH 6 0
BBX 7 9 0 0
BITMAP
F0
60
60
70
E0
60
60
62
FE
ENDCHAR
STARTCHAR lslash
ENCODING 322
SWIDTH 325 0
DWIDTH 4 0
BBX 5 9 1 0
BITMAP
70
30
30
38
70
B0
30
30
78
ENDCHAR
STARTCHAR Nacute
ENCODING 323
SWIDTH 788 0
DWIDTH 9 0
BBX 8 12 0 0
BITMAP
0C
10
00
E7
62
72
72
5A
5E
4E
46
E6
ENDCHAR
STARTCHAR nacute
ENCODING 324
SWIDTH 654 0
DWIDTH 7 0
BBX 7 9 0 0
BITMAP
18
20
00
EC
7C
6C
6C
6C
FE
ENDCHAR
STARTCHAR Ncommaaccent
ENCODING 325
SWIDTH 788 0
DWIDTH 9 0
BBX 8 14 0 -5
BITMAP
E7
62
72
72
5A
5E
4E
46
E6
00
18
18
18
18
ENDCHAR
STARTCHAR ncommaaccent
ENCODING 326
SWIDTH 654 0
DWIDTH 7 0
BBX 7 11 0 -5
BITMAP
EC
7C
6C
6C
6C
FE
00
18
18
18
18
ENDCHAR
STARTCHAR Ncaron
ENCODING 327
SWIDTH 788 0
DWIDTH 9 0
BBX 8 12 0 0
BITMAP
24
18
00
E7
62
72
72
5A
5E
4E
46
E6
ENDCHAR
STARTCHAR ncaron
ENCODING 328
SWIDTH 654 0
DWIDTH 7 0
BBX 7 9 0 0
BITMAP
48
30
00
EC
7C
6C
6C
6C
FE
ENDCHAR
STARTCHAR napostrophe
ENCODING 329
SWIDTH 906 0
DWIDTH 10 0
BBX 10 9 0 0
BITMAP
C000
C000
C000
DD80
0F80
0D80
0D80
0D80
1FC0
ENDCHAR
STARTCHAR Eng
ENCODING 330
SWIDTH 788 0
DWIDTH 9 0
BBX 8 11 0 -2
BITMAP
E7
62
72
72
5A
5E
4E
46
E6
16
1E
ENDCHAR
STARTCHAR eng
ENCODING 331
SWIDTH 654 0
DWIDTH 7 0
BBX 6 8 0 -2
BITMAP
EC
7C
6C
6C
6C
FC
2C
3C
ENDCHAR
STARTCHAR Omacron
ENCODING 332
SWIDTH 810 0
DWIDTH 9 0
BBX 8 11 0 0
BITMAP
1C
00
3C
66
C3
C3
C3
C3
C3
66
3C
ENDCHAR
STARTCHAR omacron
ENCODING 333
SWIDTH 617 0
DWIDTH 7 0
BBX 6 8 0 0
BITMAP
38
00
78
CC
CC
CC
CC
78
ENDCHAR
STARTCHAR Obreve
ENCODING 334
SWIDTH 810 0
DWIDTH 9 0
BBX 8 12 0 0
BITMAP
24
18
00
3C
66
C3
C3
C3
C3
C3
66
3C
ENDCHAR
STARTCHAR obreve
ENCODING 335
SWIDTH 617 0
DWIDTH 7 0
BBX 6 9 0 0
BITMAP
48
30
00
78
CC
CC
CC
CC
78
ENDCHAR
STARTCHAR Ohungarumlaut
ENCODING 336
SWIDTH 810 0
DWIDTH 9 0
BBX 8 12 0 0
BITMAP
14
28
00
3C
66
C3
C3
C3
C3
C3
66
3C
ENDCHAR
STARTCHAR ohungarumlaut
ENCODING 337
SWIDTH 617 0
DWIDTH 7 0
BBX 6 9 0 0
BITMAP
28
50
00
78
CC
CC
CC
CC
78
ENDCHAR
STARTCHAR OE
ENCODING 338
SWIDTH 1044 0
DWIDTH 11 0
BBX 11 9 0 0
BITMAP
3FE0
6620
C600
C640
C7C0
C640
C600
6620
3FE0
ENDCHAR
STARTCHAR oe
ENCODING 339
SWIDTH 943 0
DWIDTH 10 0
BBX 9 6 1 0
BITMAP
7300
CD80
CF80
CC00
CE00
7780
ENDCHAR
STARTCHAR Racute
ENCODING 340
SWIDTH 720 0
DWIDTH 8 0
BBX 7 12 1 0
BITMAP
18
20
00
F8
6C
6C
6C
78
78
6C
6E
FE
ENDCHAR
STARTCHAR racute
ENCODING 341
SWIDTH 462 0
DWIDTH 5 0
BBX 5 9 0 0
BITMAP
18
20
00
E8
78
60
60
60
F0
ENDCHAR
STARTCHAR Rcommaaccent
ENCODING 342
SWIDTH 720 0
DWIDTH 8 0
BBX 7 14 1 -5
BITMAP
F8
6C
6C
6C
78
78
6C
6E
FE
00
18
18
18
18
ENDCHAR
STARTCHAR rcommaaccent
ENCODING 343
SWIDTH 462 0
DWIDTH 5 0
BBX 5 11 0 -5
BITMAP
E8
78
60
60
60
F0
00
60
60
60
60
ENDCHAR
STARTCHAR Rcaron
ENCODING 344
SWIDTH 720 0
DWIDTH 8 0
BBX 7 12 1 0
BITMAP
48
30
00
F8
6C
6C
6C
78
78
6C
6E
FE
ENDCHAR
STARTCHAR rcaron
ENCODING 345
SWIDTH 462 0
DWIDTH 5 0
BBX 5 9 0 0
BITMAP
48
30
00
E8
78
60
60
60
F0
ENDCHAR
STARTCHAR Sacute
ENCODING 346
SWIDTH 556 0
DWIDTH 6 0
BBX 6 12 0 0
BITMAP
18
20
00
78
C8
C0
E0
78
1C
0C
8C
F8
ENDCHAR
STARTCHAR sacute
ENCODING 347
SWIDTH 525 0
DWIDTH 6 0
BBX 5 9 0 0
BITMAP
30
40
00
70
D0
F0
78
98
F0
ENDCHAR
STARTCHAR Scircumflex
ENCODING 348
SWIDTH 556 0
DWIDTH 6 0
BBX 6 12 0 0
BITMAP
30
48
00
78
C8
C0
E0
78
1C
0C
8C
F8
ENDCHAR
STARTCHAR scircumflex
ENCODING 349
SWIDTH 525 0
DWIDTH 6 0
BBX 5 9 0 0
BITMAP
60
90
00
70
D0
F0
78
98
F0
ENDCHAR
STARTCHAR Scedilla
ENCODING 350
SWIDTH 556 0
DWIDTH 6 0
BBX 6 11 0 -2
BITMAP
78
C8
C0
E0
78
1C
0C
8C
F8
10
18
ENDCHAR
STARTCHAR scedilla
ENCODING 351
SWIDTH 525 0
DWIDTH 6 0
BBX 5 8 0 -2
BITMAP
70
D0
F0
78
98
F0
20
30
ENDCHAR
STARTCHAR Scaron
ENCODING 352
SWIDTH 556 0
DWIDTH 6 0
BBX 6 11 0 0
BITMAP
48
30
78
C8
C0
E0
78
1C
0C
8C
F8
ENDCHAR
STARTCHAR scaron
ENCODING 353
SWIDTH 525 0
DWIDTH 6 0
BBX 5 8 0 0
BITMAP
90
60
70
D0
F0
78
98
F0
ENDCHAR
STARTCHAR Tcommaaccent
ENCODING 354
SWIDTH 714 0
DWIDTH 8 0
BBX 8 11 0 -2
BITMAP
FF
99
18
18
18
18
18
18
3C
10
18
ENDCHAR
STARTCHAR tcommaaccent
ENCODING 355
SWIDTH 389 0
DWIDTH 4 0
BBX 4 11 0 -2
BITMAP
60
60
60
F0
60
60
60
60
70
40
60
ENDCHAR
STARTCHAR Tcaron
ENCODING 356
SWIDTH 714 0
DWIDTH 8 0
BBX 8 12 0 0
BITMAP
24
18
00
FF
99
18
18
18
18
18
18
3C
ENDCHAR
STARTCHAR tcaron
ENCODING 357
SWIDTH 635 0
DWIDTH 7 0
BBX 6 9 0 0
BITMAP
6C
6C
6C
FC
60
60
60
60
70
ENDCHAR
STARTCHAR Tbar
ENCODING 358
SWIDTH 714 0
DWIDTH 8 0
BBX 8 9 0 0
BITMAP
FF
99
18
18
3C
18
18
18
3C
ENDCHAR
STARTCHAR tbar
ENCODING 359
SWIDTH 389 0
DWIDTH 4 0
BBX 4 9 0 0
BITMAP
60
60
60
F0
60
60
F0
60
70
ENDCHAR
STARTCHAR Utilde
ENCODING 360
SWIDTH 747 0
DWIDTH 8 0
BBX 8 12 0 0
BITMAP
3C
3C
00
F7
62
62
62
62
62
62
62
3C
ENDCHAR
STARTCHAR utilde
ENCODING 361
SWIDTH 654 0
DWIDTH 7 0
BBX 7 9 0 0
BITMAP
78
78
00
FC
6C
6C
6C
7C
6E
ENDCHAR
STARTCHAR Umacron
ENCODING 362
SWIDTH 747 0
DWIDTH 8 0
BBX 8 11 0 0
BITMAP
38
00
F7
62
62
62
62
62
62
62
3C
ENDCHAR
STARTCHAR umacron
ENCODING 363
SWIDTH 654 0
DWIDTH 7 0
BBX 7 8 0 0
BITMAP
38
00
FC
6C
6C
6C
7C
6E
ENDCHAR
STARTCHAR Ubreve
ENCODING 364
SWIDTH 747 0
DWIDTH 8 0
BBX 8 12 0 0
BITMAP
24
18
00
F7
62
62
62
62
62
62
62
3C
ENDCHAR
STARTCHAR ubreve
ENCODING 365
SWIDTH 654 0
DWIDTH 7 0
BBX 7 9 0 0
BITMAP
48
30
00
FC
6C
6C
6C
7C
6E
ENDCHAR
STARTCHAR Uring
ENCODING 366
SWIDTH 747 0
DWIDTH 8 0
BBX 8 12 0 0
BITMAP
18
18
00
F7
62
62
62
62
62
62
62
3C
ENDCHAR
STARTCHAR uring
ENCODING 367
SWIDTH 654 0
DWIDTH 7 0
BBX 7 9 0 0
BITMAP
30
30
00
FC
6C
6C
6C
7C
6E
ENDCHAR
STARTCHAR Uhungarumlaut
ENCODING 368
SWIDTH 747 0
DWIDTH 8 0
BBX 8 12 0 0
BITMAP
14
28
00
F7
62
62
62
62
62
62
62
3C
ENDCHAR
STARTCHAR uhungarumlaut
ENCODING 369
SWIDTH 654 0
DWIDTH 7 0
BBX 7 9 0 0
BITMAP
14
28
00
FC
6C
6C
6C
7C
6E
ENDCHAR
STARTCHAR Uogonek
ENCODING 370
SWIDTH 747 0
DWIDTH 8 0
BBX 8 11 0 -2
BITMAP
F7
62
62
62
62
62
62
62
3C
18
18
ENDCHAR
STARTCHAR uogonek
ENCODING 371
SWIDTH 654 0
DWIDTH 7 0
BBX 7 8 0 -2
BITMAP
FC
6C
6C
6C
7C
6E
18
18
ENDCHAR
STARTCHAR Wcircumflex
ENCODING 372
SWIDTH 955 0
DWIDTH 10 0
BBX 11 12 0 0
BITMAP
0C00
1200
0000
E660
6640
6640
6E40
7B80
3B80
3380
3100
1100
ENDCHAR
STARTCHAR wcircumflex
ENCODING 373
SWIDTH 880 0
DWIDTH 10 0
BBX 10 9 0 0
BITMAP
0C00
1200
0000
E4C0
6E80
6E80
7F00
3300
3300
ENDCHAR
STARTCHAR Ycircumflex
ENCODING 374
SWIDTH 717 0
DWIDTH 8 0
BBX 8 12 0 0
BITMAP
18
24
00
E3
62
72
34
38
18
18
18
3C
ENDCHAR
STARTCHAR ycircumflex
ENCODING 375
SWIDTH 654 0
DWIDTH 7 0
BBX 7 11 0 -2
BITMAP
30
48
00
E6
64
64
38
38
10
10
60
ENDCHAR
STARTCHAR Ydieresis
ENCODING 376
SWIDTH 717 0
DWIDTH 8 0
BBX 8 11 0 0
BITMAP
28
28
E3
62
72
34
38
18
18
18
3C
ENDCHAR
STARTCHAR Zacute
ENCODING 377
SWIDTH 639 0
DWIDTH 7 0
BBX 6 12 0 0
BITMAP
18
20
00
FC
8C
18
38
30
70
60
C4
FC
ENDCHAR
STARTCHAR zacute
ENCODING 378
SWIDTH 584 0
DWIDTH 6 0
BBX 5 9 1 0
BITMAP
18
20
00
F8
B8
30
60
E8
F8
ENDCHAR
STARTCHAR Zdotaccent
ENCODING 379
SWIDTH 639 0
DWIDTH 7 0
BBX 6 12 0 0
BITMAP
10
10
00
FC
8C
18
38
30
70
60
C4
FC
ENDCHAR
STARTCHAR zdotaccent
ENCODING 380
SWIDTH 584 0
DWIDTH 6 0
BBX 5 9 1 0
BITMAP
20
20
00
F8
B8
30
60
E8
F8
ENDCHAR
STARTCHAR Zcaron
ENCODING 381
SWIDTH 639 0
DWIDTH 7 0
BBX 6 11 0 0
BITMAP
48
30
FC
8C
18
38
30
70
60
C4
FC
ENDCHAR
STARTCHAR zcaron
ENCODING 382
SWIDTH 584 0
DWIDTH 6 0
BBX 5 8 1 0
BITMAP
48
30
F8
B8
30
60
E8
F8
ENDCHAR
STARTCHAR uni0186
ENCODING 390
SWIDTH 711 0
DWIDTH 8 0
BBX 7 9 0 0
BITMAP
F8
8C
06
06
06
06
06
8C
F8
ENDCHAR
STARTCHAR uni0189
ENCODING 393
SWIDTH 794 0
DWIDTH 9 0
BBX 8 9 0 0
BITMAP
FC
66
63
63
FB
63
63
66
FC
ENDCHAR
STARTCHAR uni018E
ENCODING 398
SWIDTH 601 0
DWIDTH 7 0
BBX 6 9 0 0
BITMAP
FC
98
18
58
78
58
18
98
FC
ENDCHAR
STARTCHAR florin
ENCODING 402
SWIDTH 623 0
DWIDTH 7 0
BBX 6 11 1 -2
BITMAP
1C
34
20
60
F0
60
60
60
C0
C0
C0
ENDCHAR
STARTCHAR uni0197
ENCODING 407
SWIDTH 349 0
DWIDTH 4 0
BBX 4 9 0 0
BITMAP
F0
60
60
60
F0
60
60
60
F0
ENDCHAR
STARTCHAR uni019A
ENCODING 410
SWIDTH 325 0
DWIDTH 4 0
BBX 4 9 0 0
BITMAP
E0
60
60
60
F0
60
60
60
F0
ENDCHAR
STARTCHAR uni019D
ENCODING 413
SWIDTH 788 0
DWIDTH 9 0
BBX 9 11 -1 -2
BITMAP
7380
3100
3900
3900
2D00
2F00
3700
3300
3300
B000
F000
ENDCHAR
STARTCHAR uni019F
ENCODING 415
SWIDTH 810 0
DWIDTH 9 0
BBX 8 9 0 0
BITMAP
3C
66
C3
C3
FF
C3
C3
66
3C
ENDCHAR
STARTCHAR Ohorn
ENCODING 416
SWIDTH 810 0
DWIDTH 9 0
BBX 10 9 0 0
BITMAP
3CC0
66C0
C3C0
C3C0
C300
C300
C300
6600
3C00
ENDCHAR
STARTCHAR ohorn
ENCODING 417
SWIDTH 617 0
DWIDTH 7 0
BBX 8 6 0 0
BITMAP
7B
CF
CF
CF
CC
78
ENDCHAR
STARTCHAR uni01A7
ENCODING 423
SWIDTH 556 0
DWIDTH 6 0
BBX 6 9 0 0
BITMAP
78
4C
0C
1C
78
E0
C0
C4
7C
ENDCHAR
STARTCHAR uni01A8
ENCODING 424
SWIDTH 525 0
DWIDTH 6 0
BBX 5 6 0 0
BITMAP
70
58
78
F0
C8
78
ENDCHAR
STARTCHAR uni01AE
ENCODING 430
SWIDTH 714 0
DWIDTH 8 0
BBX 8 11 0 -2
BITMAP
FF
99
18
18
18
18
18
18
18
1A
1E
ENDCHAR
STARTCHAR Uhorn
ENCODING 431
SWIDTH 747 0
DWIDTH 8 0
BBX 10 9 0 0
BITMAP
F7C0
62C0
62C0
62C0
6200
6200
6200
6200
3C00
ENDCHAR
STARTCHAR uhorn
ENCODING 432
SWIDTH 654 0
DWIDTH 7 0
BBX 9 6 0 0
BITMAP
FD80
6D80
6D80
6D80
7C00
6E00
ENDCHAR
STARTCHAR uni01B5
ENCODING 437
SWIDTH 639 0
DWIDTH 7 0
BBX 6 9 0 0
BITMAP
FC
8C
18
38
78
70
60
C4
FC
ENDCHAR
STARTCHAR uni01B6
ENCODING 438
SWIDTH 584 0
DWIDTH 6 0
BBX 5 6 1 0
BITMAP
F8
B8
78
60
E8
F8
ENDCHAR
STARTCHAR uni01BB
ENCODING 443
SWIDTH 623 0
DWIDTH 7 0
BBX 6 9 0 0
BITMAP
F8
8C
0C
0C
FC
20
40
FC
FC
ENDCHAR
STARTCHAR uni01BC
ENCODING 444
SWIDTH 623 0
DWIDTH 7 0
BBX 5 9 1 0
BITMAP
F8
F8
80
80
F0
38
18
98
F0
ENDCHAR
STARTCHAR uni01C0
ENCODING 448
SWIDTH 259 0
DWIDTH 3 0
BBX 1 11 1 -2
BITMAP
80
80
80
80
80
80
80
80
80
80
80
ENDCHAR
STARTCHAR uni01C2
ENCODING 450
SWIDTH 623 0
DWIDTH 7 0
BBX 6 11 0 -2
BITMAP
10
10
10
10
FC
10
FC
10
10
10
10
ENDCHAR
STARTCHAR uni01C3
ENCODING 451
SWIDTH 265 0
DWIDTH 3 0
BBX 2 9 0 0
BITMAP
C0
C0
C0
C0
40
40
00
C0
C0
ENDCHAR
STARTCHAR uni01CD
ENCODING 461
SWIDTH 795 0
DWIDTH 9 0
BBX 9 12 0 0
BITMAP
1200
0C00
0000
0800
1C00
1C00
3E00
2600
3F00
4300
4300
C380
ENDCHAR
STARTCHAR uni01CE
ENCODING 462
SWIDTH 556 0
DWIDTH 6 0
BBX 6 9 0 0
BITMAP
48
30
00
70
18
F8
D8
D8
6C
ENDCHAR
STARTCHAR uni01CF
ENCODING 463
SWIDTH 349 0
DWIDTH 4 0
BBX 4 12 0 0
BITMAP
90
60
00
F0
60
60
60
60
60
60
60
F0
ENDCHAR
STARTCHAR uni01D0
ENCODING 464
SWIDTH 325 0
DWIDTH 4 0
BBX 4 9 0 0
BITMAP
90
60
00
E0
60
60
60
60
F0
ENDCHAR
STARTCHAR uni01D1
ENCODING 465
SWIDTH 810 0
DWIDTH 9 0
BBX 8 12 0 0
BITMAP
24
18
00
3C
66
C3
C3
C3
C3
C3
66
3C
ENDCHAR
STARTCHAR uni01D2
ENCODING 466
SWIDTH 617 0
DWIDTH 7 0
BBX 6 9 0 0
BITMAP
48
30
00
78
CC
CC
CC
CC
78
ENDCHAR
STARTCHAR uni01D3
ENCODING 467
SWIDTH 747 0
DWIDTH 8 0
BBX 8 12 0 0
BITMAP
24
18
00
F7
62
62
62
62
62
62
62
3C
ENDCHAR
STARTCHAR uni01D4
ENCODING 468
SWIDTH 654 0
DWIDTH 7 0
BBX 7 9 0 0
BITMAP
48
30
00
FC
6C
6C
6C
7C
6E
ENDCHAR
STARTCHAR uni01D5
ENCODING 469
SWIDTH 747 0
DWIDTH 8 0
BBX 8 13 0 0
BITMAP
38
00
28
28
F7
62
62
62
62
62
62
62
3C
ENDCHAR
STARTCHAR uni01D6
ENCODING 470
SWIDTH 654 0
DWIDTH 7 0
BBX 7 10 0 0
BITMAP
38
00
28
28
FC
6C
6C
6C
7C
6E
ENDCHAR
STARTCHAR uni01D7
ENCODING 471
SWIDTH 747 0
DWIDTH 8 0
BBX 8 14 0 0
BITMAP
0C
10
00
28
28
F7
62
62
62
62
62
62
62
3C
ENDCHAR
STARTCHAR uni01D8
ENCODING 472
SWIDTH 654 0
DWIDTH 7 0
BBX 7 11 0 0
BITMAP
18
20
00
28
28
FC
6C
6C
6C
7C
6E
ENDCHAR
STARTCHAR uni01D9
ENCODING 473
SWIDTH 747 0
DWIDTH 8 0
BBX 8 14 0 0
BITMAP
24
18
00
28
28
F7
62
62
62
62
62
62
62
3C
ENDCHAR
STARTCHAR uni01DA
ENCODING 474
SWIDTH 654 0
DWIDTH 7 0
BBX 7 11 0 0
BITMAP
48
30
00
28
28
FC
6C
6C
6C
7C
6E
ENDCHAR
STARTCHAR uni01DB
ENCODING 475
SWIDTH 747 0
DWIDTH 8 0
BBX 8 14 0 0
BITMAP
30
08
00
28
28
F7
62
62
62
62
62
62
62
3C
ENDCHAR
STARTCHAR uni01DC
ENCODING 476
SWIDTH 654 0
DWIDTH 7 0
BBX 7 11 0 0
BITMAP
60
10
00
28
28
FC
6C
6C
6C
7C
6E
ENDCHAR
STARTCHAR uni01DD
ENCODING 477
SWIDTH 568 0
DWIDTH 6 0
BBX 5 6 0 0
BITMAP
F0
38
18
F8
D8
70
ENDCHAR
STARTCHAR uni01DE
ENCODING 478
SWIDTH 795 0
DWIDTH 9 0
BBX 9 13 0 0
BITMAP
1C00
0000
1400
1400
0800
1C00
1C00
3E00
2600
3F00
4300
4300
C380
ENDCHAR
STARTCHAR uni01DF
ENCODING 479
SWIDTH 556 0
DWIDTH 6 0
BBX 6 10 0 0
BITMAP
70
00
50
50
70
18
F8
D8
D8
6C
ENDCHAR
STARTCHAR uni01E0
ENCODING 480
SWIDTH 795 0
DWIDTH 9 0
BBX 9 14 0 0
BITMAP
1C00
0000
0800
0800
0000
0800
1C00
1C00
3E00
2600
3F00
4300
4300
C380
ENDCHAR
STARTCHAR uni01E1
ENCODING 481
SWIDTH 556 0
DWIDTH 6 0
BBX 6 11 0 0
BITMAP
38
00
10
10
00
70
18
F8
D8
D8
6C
ENDCHAR
STARTCHAR uni01E2
ENCODING 482
SWIDTH 959 0
DWIDTH 11 0
BBX 10 11 0 0
BITMAP
0E00
0000
0FC0
0E40
1E80
1780
2680
3E00
4600
C640
CFC0
ENDCHAR
STARTCHAR uni01E3
ENCODING 483
SWIDTH 858 0
DWIDTH 9 0
BBX 9 8 0 0
BITMAP
0E00
0000
7700
0D80
7F80
CC00
CE00
7780
ENDCHAR
STARTCHAR uni01E4
ENCODING 484
SWIDTH 753 0
DWIDTH 8 0
BBX 8 9 0 0
BITMAP
3E
62
C0
C0
C0
CF
CF
66
3E
ENDCHAR
STARTCHAR uni01E5
ENCODING 485
SWIDTH 599 0
DWIDTH 7 0
BBX 6 8 0 -2
BITMAP
7C
D8
D8
70
FC
FC
CC
F8
ENDCHAR
STARTCHAR Gcaron
ENCODING 486
SWIDTH 753 0
DWIDTH 8 0
BBX 8 12 0 0
BITMAP
24
18
00
3E
62
C0
C0
C0
CF
C6
66
3E
ENDCHAR
STARTCHAR gcaron
ENCODING 487
SWIDTH 599 0
DWIDTH 7 0
BBX 6 11 0 -2
BITMAP
48
30
00
7C
D8
D8
70
FC
7C
CC
F8
ENDCHAR
STARTCHAR uni01E8
ENCODING 488
SWIDTH 747 0
DWIDTH 8 0
BBX 8 12 0 0
BITMAP
24
18
00
F2
66
6C
78
78
7C
6E
66
F7
ENDCHAR
STARTCHAR uni01E9
ENCODING 489
SWIDTH 654 0
DWIDTH 7 0
BBX 7 12 0 0
BITMAP
90
60
00
E0
60
60
64
6C
78
78
6C
FE
ENDCHAR
STARTCHAR uni01EA
ENCODING 490
SWIDTH 810 0
DWIDTH 9 0
BBX 8 11 0 -2
BITMAP
3C
66
C3
C3
C3
C3
C3
66
3C
18
18
ENDCHAR
STARTCHAR uni01EB
ENCODING 491
SWIDTH 617 0
DWIDTH 7 0
BBX 6 8 0 -2
BITMAP
78
CC
CC
CC
CC
78
30
30
ENDCHAR
STARTCHAR uni01EC
ENCODING 492
SWIDTH 810 0
DWIDTH 9 0
BBX 8 13 0 -2
BITMAP
1C
00
3C
66
C3
C3
C3
C3
C3
66
3C
18
18
ENDCHAR
STARTCHAR uni01ED
ENCODING 493
SWIDTH 617 0
DWIDTH 7 0
BBX 6 10 0 -2
BITMAP
38
00
78
CC
CC
CC
CC
78
30
30
ENDCHAR
STARTCHAR uni01F0
ENCODING 496
SWIDTH 355 0
DWIDTH 4 0
BBX 5 11 0 -2
BITMAP
48
30
00
70
30
30
30
30
30
B0
F0
ENDCHAR
STARTCHAR uni01F4
ENCODING 500
SWIDTH 753 0
DWIDTH 8 0
BBX 8 12 0 0
BITMAP
0C
10
00
3E
62
C0
C0
C0
CF
C6
66
3E
ENDCHAR
STARTCHAR uni01F5
ENCODING 501
SWIDTH 599 0
DWIDTH 7 0
BBX 6 11 0 -2
BITMAP
18
20
00
7C
D8
D8
70
FC
7C
CC
F8
ENDCHAR
STARTCHAR uni01F8
ENCODING 504
SWIDTH 788 0
DWIDTH 9 0
BBX 8 12 0 0
BITMAP
30
08
00
E7
62
72
72
5A
5E
4E
46
E6
ENDCHAR
STARTCHAR uni01F9
ENCODING 505
SWIDTH 654 0
DWIDTH 7 0
BBX 7 9 0 0
BITMAP
60
10
00
EC
7C
6C
6C
6C
FE
ENDCHAR
STARTCHAR Aringacute
ENCODING 506
SWIDTH 795 0
DWIDTH 9 0
BBX 9 14 0 0
BITMAP
0600
0800
0000
0C00
0C00
0800
1C00
1C00
3E00
2600
3F00
4300
4300
C380
ENDCHAR
STARTCHAR aringacute
ENCODING 507
SWIDTH 556 0
DWIDTH 6 0
BBX 6 11 0 0
BITMAP
18
20
00
30
30
70
18
F8
D8
D8
6C
ENDCHAR
STARTCHAR AEacute
ENCODING 508
SWIDTH 959 0
DWIDTH 11 0
BBX 10 12 0 0
BITMAP
0300
0400
0000
0FC0
0E40
1E80
1780
2680
3E00
4600
C640
CFC0
ENDCHAR
STARTCHAR aeacute
ENCODING 509
SWIDTH 858 0
DWIDTH 9 0
BBX 9 9 0 0
BITMAP
0600
0800
0000
7700
0D80
7F80
CC00
CE00
7780
ENDCHAR
STARTCHAR Oslashacute
ENCODING 510
SWIDTH 810 0
DWIDTH 9 0
BBX 8 12 0 0
BITMAP
0C
10
00
3D
66
C7
CB
DB
D3
E3
66
BC
ENDCHAR
STARTCHAR oslashacute
ENCODING 511
SWIDTH 617 0
DWIDTH 7 0
BBX 6 9 0 0
BITMAP
18
20
00
74
CC
DC
EC
CC
B8
ENDCHAR
STARTCHAR uni0200
ENCODING 512
SWIDTH 795 0
DWIDTH 9 0
BBX 9 12 0 0
BITMAP
2800
1400
0000
0800
1C00
1C00
3E00
2600
3F00
4300
4300
C380
ENDCHAR
STARTCHAR uni0201
ENCODING 513
SWIDTH 556 0
DWIDTH 6 0
BBX 6 9 0 0
BITMAP
50
28
00
70
18
F8
D8
D8
6C
ENDCHAR
STARTCHAR uni0202
ENCODING 514
SWIDTH 795 0
DWIDTH 9 0
BBX 9 12 0 0
BITMAP
0C00
1200
0000
0800
1C00
1C00
3E00
2600
3F00
4300
4300
C380
ENDCHAR
STARTCHAR uni0203
ENCODING 515
SWIDTH 556 0
DWIDTH 6 0
BBX 6 9 0 0
BITMAP
30
48
00
70
18
F8
D8
D8
6C
ENDCHAR
STARTCHAR uni0204
ENCODING 516
SWIDTH 601 0
DWIDTH 7 0
BBX 6 12 0 0
BITMAP
50
28
00
FC
64
60
68
78
68
60
64
FC
ENDCHAR
STARTCHAR uni0205
ENCODING 517
SWIDTH 568 0
DWIDTH 6 0
BBX 5 9 0 0
BITMAP
A0
50
00
70
D8
F8
C0
E0
78
ENDCHAR
STARTCHAR uni0206
ENCODING 518
SWIDTH 601 0
DWIDTH 7 0
BBX 6 12 0 0
BITMAP
30
48
00
FC
64
60
68
78
68
60
64
FC
ENDCHAR
STARTCHAR uni0207
ENCODING 519
SWIDTH 568 0
DWIDTH 6 0
BBX 5 9 0 0
BITMAP
30
48
00
70
D8
F8
C0
E0
78
ENDCHAR
STARTCHAR uni0208
ENCODING 520
SWIDTH 349 0
DWIDTH 4 0
BBX 4 12 0 0
BITMAP
A0
50
00
F0
60
60
60
60
60
60
60
F0
ENDCHAR
STARTCHAR uni0209
ENCODING 521
SWIDTH 325 0
DWIDTH 4 0
BBX 5 9 -1 0
BITMAP
A0
50
00
70
30
30
30
30
78
ENDCHAR
STARTCHAR uni020A
ENCODING 522
SWIDTH 349 0
DWIDTH 4 0
BBX 4 12 0 0
BITMAP
60
90
00
F0
60
60
60
60
60
60
60
F0
ENDCHAR
STARTCHAR uni020B
ENCODING 523
SWIDTH 325 0
DWIDTH 4 0
BBX 4 9 0 0
BITMAP
60
90
00
E0
60
60
60
60
F0
ENDCHAR
STARTCHAR uni020C
ENCODING 524
SWIDTH 810 0
DWIDTH 9 0
BBX 8 12 0 0
BITMAP
28
14
00
3C
66
C3
C3
C3
C3
C3
66
3C
ENDCHAR
STARTCHAR uni020D
ENCODING 525
SWIDTH 617 0
DWIDTH 7 0
BBX 6 9 0 0
BITMAP
50
28
00
78
CC
CC
CC
CC
78
ENDCHAR
STARTCHAR uni020E
ENCODING 526
SWIDTH 810 0
DWIDTH 9 0
BBX 8 12 0 0
BITMAP
18
24
00
3C
66
C3
C3
C3
C3
C3
66
3C
ENDCHAR
STARTCHAR uni020F
ENCODING 527
SWIDTH 617 0
DWIDTH 7 0
BBX 6 9 0 0
BITMAP
30
48
00
78
CC
CC
CC
CC
78
ENDCHAR
STARTCHAR uni0210
ENCODING 528
SWIDTH 720 0
DWIDTH 8 0
BBX 7 12 1 0
BITMAP
50
28
00
F8
6C
6C
6C
78
78
6C
6E
FE
ENDCHAR
STARTCHAR uni0211
ENCODING 529
SWIDTH 462 0
DWIDTH 5 0
BBX 5 9 0 0
BITMAP
A0
50
00
E8
78
60
60
60
F0
ENDCHAR
STARTCHAR uni0212
ENCODING 530
SWIDTH 720 0
DWIDTH 8 0
BBX 7 12 1 0
BITMAP
30
48
00
F8
6C
6C
6C
78
78
6C
6E
FE
ENDCHAR
STARTCHAR uni0213
ENCODING 531
SWIDTH 462 0
DWIDTH 5 0
BBX 5 9 0 0
BITMAP
30
48
00
E8
78
60
60
60
F0
ENDCHAR
STARTCHAR uni0214
ENCODING 532
SWIDTH 747 0
DWIDTH 8 0
BBX 8 12 0 0
BITMAP
50
28
00
F7
62
62
62
62
62
62
62
3C
ENDCHAR
STARTCHAR uni0215
ENCODING 533
SWIDTH 654 0
DWIDTH 7 0
BBX 7 9 0 0
BITMAP
50
28
00
FC
6C
6C
6C
7C
6E
ENDCHAR
STARTCHAR uni0216
ENCODING 534
SWIDTH 747 0
DWIDTH 8 0
BBX 8 12 0 0
BITMAP
18
24
00
F7
62
62
62
62
62
62
62
3C
ENDCHAR
STARTCHAR uni0217
ENCODING 535
SWIDTH 654 0
DWIDTH 7 0
BBX 7 9 0 0
BITMAP
30
48
00
FC
6C
6C
6C
7C
6E
ENDCHAR
STARTCHAR Scommaaccent
ENCODING 536
SWIDTH 556 0
DWIDTH 6 0
BBX 6 14 0 -5
BITMAP
78
C8
C0
E0
78
1C
0C
8C
F8
00
30
30
30
30
ENDCHAR
STARTCHAR scommaaccent
ENCODING 537
SWIDTH 525 0
DWIDTH 6 0
BBX 5 11 0 -5
BITMAP
70
D0
F0
78
98
F0
00
60
60
60
60
ENDCHAR
STARTCHAR Tcommaaccent
ENCODING 538
SWIDTH 714 0
DWIDTH 8 0
BBX 8 14 0 -5
BITMAP
FF
99
18
18
18
18
18
18
3C
00
18
18
18
18
ENDCHAR
STARTCHAR tcommaaccent
ENCODING 539
SWIDTH 389 0
DWIDTH 4 0
BBX 4 14 0 -5
BITMAP
60
60
60
F0
60
60
60
60
70
00
60
60
60
60
ENDCHAR
STARTCHAR uni021E
ENCODING 542
SWIDTH 798 0
DWIDTH 9 0
BBX 9 12 0 0
BITMAP
1200
0C00
0000
F780
6300
6300
6300
7F00
6300
6300
6300
F780
ENDCHAR
STARTCHAR uni021F
ENCODING 543
SWIDTH 654 0
DWIDTH 7 0
BBX 7 12 0 0
BITMAP
90
60
00
E0
60
60
6C
7C
6C
6C
6C
FE
ENDCHAR
STARTCHAR uni0226
ENCODING 550
SWIDTH 795 0
DWIDTH 9 0
BBX 9 12 0 0
BITMAP
0800
0800
0000
0800
1C00
1C00
3E00
2600
3F00
4300
4300
C380
ENDCHAR
STARTCHAR uni0227
ENCODING 551
SWIDTH 556 0
DWIDTH 6 0
BBX 6 9 0 0
BITMAP
10
10
00
70
18
F8
D8
D8
6C
ENDCHAR
STARTCHAR uni0228
ENCODING 552
SWIDTH 601 0
DWIDTH 7 0
BBX 6 11 0 -2
BITMAP
FC
64
60
68
78
68
60
64
FC
20
30
ENDCHAR
STARTCHAR uni0229
ENCODING 553
SWIDTH 568 0
DWIDTH 6 0
BBX 5 8 0 -2
BITMAP
70
D8
F8
C0
E0
78
20
30
ENDCHAR
STARTCHAR uni022A
ENCODING 554
SWIDTH 810 0
DWIDTH 9 0
BBX 8 13 0 0
BITMAP
38
00
28
28
3C
66
C3
C3
C3
C3
C3
66
3C
ENDCHAR
STARTCHAR uni022B
ENCODING 555
SWIDTH 617 0
DWIDTH 7 0
BBX 6 10 0 0
BITMAP
70
00
50
50
78
CC
CC
CC
CC
78
ENDCHAR
STARTCHAR uni022C
ENCODING 556
SWIDTH 810 0
DWIDTH 9 0
BBX 8 13 0 0
BITMAP
1C
00
3C
3C
3C
66
C3
C3
C3
C3
C3
66
3C
ENDCHAR
STARTCHAR uni022D
ENCODING 557
SWIDTH 617 0
DWIDTH 7 0
BBX 6 10 0 0
BITMAP
38
00
78
78
78
CC
CC
CC
CC
78
ENDCHAR
STARTCHAR uni022E
ENCODING 558
SWIDTH 810 0
DWIDTH 9 0
BBX 8 12 0 0
BITMAP
08
08
00
3C
66
C3
C3
C3
C3
C3
66
3C
ENDCHAR
STARTCHAR uni022F
ENCODING 559
SWIDTH 617 0
DWIDTH 7 0
BBX 6 9 0 0
BITMAP
10
10
00
78
CC
CC
CC
CC
78
ENDCHAR
STARTCHAR uni0230
ENCODING 560
SWIDTH 810 0
DWIDTH 9 0
BBX 8 14 0 0
BITMAP
1C
00
08
08
00
3C
66
C3
C3
C3
C3
C3
66
3C
ENDCHAR
STARTCHAR uni0231
ENCODING 561
SWIDTH 617 0
DWIDTH 7 0
BBX 6 11 0 0
BITMAP
38
00
10
10
00
78
CC
CC
CC
CC
78
ENDCHAR
STARTCHAR uni0232
ENCODING 562
SWIDTH 717 0
DWIDTH 8 0
BBX 8 11 0 0
BITMAP
38
00
E3
62
72
34
38
18
18
18
3C
ENDCHAR
STARTCHAR uni0233
ENCODING 563
SWIDTH 654 0
DWIDTH 7 0
BBX 7 10 0 -2
BITMAP
38
00
E6
64
64
38
38
10
10
60
ENDCHAR
STARTCHAR uni0250
ENCODING 592
SWIDTH 556 0
DWIDTH 6 0
BBX 6 6 0 0
BITMAP
D8
6C
6C
7C
60
38
ENDCHAR
STARTCHAR uni0254
ENCODING 596
SWIDTH 541 0
DWIDTH 6 0
BBX 5 6 0 0
BITMAP
F0
98
18
18
38
F0
ENDCHAR
STARTCHAR uni0258
ENCODING 600
SWIDTH 568 0
DWIDTH 6 0
BBX 5 6 0 0
BITMAP
70
D8
F8
18
38
F0
ENDCHAR
STARTCHAR uni0259
ENCODING 601
SWIDTH 568 0
DWIDTH 6 0
BBX 5 6 0 0
BITMAP
F0
38
18
F8
D8
70
ENDCHAR
STARTCHAR uni025F
ENCODING 607
SWIDTH 416 0
DWIDTH 5 0
BBX 5 9 0 -3
BITMAP
78
30
30
30
30
78
30
B0
E0
ENDCHAR
STARTCHAR uni0265
ENCODING 613
SWIDTH 654 0
DWIDTH 7 0
BBX 7 9 0 -3
BITMAP
FE
6C
6C
6C
7C
6C
0C
0C
0E
ENDCHAR
STARTCHAR uni0275
ENCODING 629
SWIDTH 617 0
DWIDTH 7 0
BBX 6 6 0 0
BITMAP
78
CC
FC
CC
CC
78
ENDCHAR
STARTCHAR uni0279
ENCODING 633
SWIDTH 462 0
DWIDTH 5 0
BBX 5 6 0 0
BITMAP
78
30
30
30
F0
B8
ENDCHAR
STARTCHAR uni0287
ENCODING 647
SWIDTH 389 0
DWIDTH 4 0
BBX 4 9 0 0
BITMAP
E0
60
60
60
60
F0
60
60
60
ENDCHAR
STARTCHAR uni0288
ENCODING 648
SWIDTH 389 0
DWIDTH 4 0
BBX 5 11 0 -2
BITMAP
60
60
60
F0
60
60
60
60
60
68
78
ENDCHAR
STARTCHAR uni0289
ENCODING 649
SWIDTH 654 0
DWIDTH 7 0
BBX 7 6 0 0
BITMAP
FC
6C
FE
6C
7C
6E
ENDCHAR
STARTCHAR uni028C
ENCODING 652
SWIDTH 657 0
DWIDTH 7 0
BBX 7 6 0 0
BITMAP
10
38
38
4C
4C
CE
ENDCHAR
STARTCHAR uni028D
ENCODING 653
SWIDTH 880 0
DWIDTH 10 0
BBX 10 6 0 0
BITMAP
3300
3300
3F80
5D80
5D80
C9C0
ENDCHAR
STARTCHAR uni028E
ENCODING 654
SWIDTH 654 0
DWIDTH 7 0
BBX 7 8 0 0
BITMAP
0C
10
10
38
38
4C
4C
CE
ENDCHAR
STARTCHAR uni029E
ENCODING 670
SWIDTH 654 0
DWIDTH 7 0
BBX 7 9 0 -3
BITMAP
FE
6C
3C
3C
6C
4C
0C
0C
0E
ENDCHAR
STARTCHAR uni02BB
ENCODING 699
SWIDTH 265 0
DWIDTH 3 0
BBX 2 4 0 5
BITMAP
C0
C0
C0
C0
ENDCHAR
STARTCHAR afii57929
ENCODING 700
SWIDTH 265 0
DWIDTH 3 0
BBX 2 4 0 5
BITMAP
C0
C0
C0
C0
ENDCHAR
STARTCHAR afii64937
ENCODING 701
SWIDTH 265 0
DWIDTH 3 0
BBX 2 4 0 5
BITMAP
C0
C0
C0
C0
ENDCHAR
STARTCHAR circumflex
ENCODING 710
SWIDTH 617 0
DWIDTH 7 0
BBX 4 2 1 7
BITMAP
60
90
ENDCHAR
STARTCHAR caron
ENCODING 711
SWIDTH 617 0
DWIDTH 7 0
BBX 4 2 1 7
BITMAP
90
60
ENDCHAR
STARTCHAR uni02C8
ENCODING 712
SWIDTH 253 0
DWIDTH 3 0
BBX 3 4 0 5
BITMAP
E0
E0
40
40
ENDCHAR
STARTCHAR macron
ENCODING 713
SWIDTH 617 0
DWIDTH 7 0
BBX 3 1 2 8
BITMAP
E0
ENDCHAR
STARTCHAR uni02CA
ENCODING 714
SWIDTH 617 0
DWIDTH 7 0
BBX 3 2 2 7
BITMAP
60
80
ENDCHAR
STARTCHAR uni02CB
ENCODING 715
SWIDTH 617 0
DWIDTH 7 0
BBX 3 2 2 7
BITMAP
C0
20
ENDCHAR
STARTCHAR uni02CD
ENCODING 717
SWIDTH 617 0
DWIDTH 7 0
BBX 3 1 2 -2
BITMAP
E0
ENDCHAR
STARTCHAR uni02CE
ENCODING 718
SWIDTH 617 0
DWIDTH 7 0
BBX 3 2 2 -3
BITMAP
C0
20
ENDCHAR
STARTCHAR uni02CF
ENCODING 719
SWIDTH 617 0
DWIDTH 7 0
BBX 3 2 2 -3
BITMAP
60
80
ENDCHAR
STARTCHAR breve
ENCODING 728
SWIDTH 617 0
DWIDTH 7 0
BBX 4 2 1 7
BITMAP
90
60
ENDCHAR
STARTCHAR dotaccent
ENCODING 729
SWIDTH 617 0
DWIDTH 7 0
BBX 1 2 3 7
BITMAP
80
80
ENDCHAR
STARTCHAR ring
ENCODING 730
SWIDTH 617 0
DWIDTH 7 0
BBX 2 2 2 7
BITMAP
C0
C0
ENDCHAR
STARTCHAR ogonek
ENCODING 731
SWIDTH 617 0
DWIDTH 7 0
BBX 2 2 3 -2
BITMAP
C0
C0
ENDCHAR
STARTCHAR tilde
ENCODING 732
SWIDTH 617 0
DWIDTH 7 0
BBX 4 2 1 7
BITMAP
F0
F0
ENDCHAR
STARTCHAR hungarumlaut
ENCODING 733
SWIDTH 617 0
DWIDTH 7 0
BBX 4 2 2 7
BITMAP
50
A0
ENDCHAR
STARTCHAR uni02EE
ENCODING 750
SWIDTH 470 0
DWIDTH 5 0
BBX 4 4 1 5
BITMAP
F0
F0
F0
A0
ENDCHAR
STARTCHAR uni037E
ENCODING 894
SWIDTH 265 0
DWIDTH 3 0
BBX 2 8 0 -2
BITMAP
C0
C0
00
00
C0
C0
C0
80
ENDCHAR
STARTCHAR tonos
ENCODING 900
SWIDTH 617 0
DWIDTH 7 0
BBX 3 2 2 7
BITMAP
60
80
ENDCHAR
STARTCHAR dieresistonos
ENCODING 901
SWIDTH 617 0
DWIDTH 7 0
BBX 4 5 2 7
BITMAP
30
40
00
A0
A0
ENDCHAR
STARTCHAR anoteleia
ENCODING 903
SWIDTH 623 0
DWIDTH 7 0
BBX 1 2 3 2
BITMAP
80
80
ENDCHAR
STARTCHAR mu
ENCODING 956
SWIDTH 705 0
DWIDTH 8 0
BBX 7 8 0 -2
BITMAP
FC
6C
6C
6C
7C
7E
60
60
ENDCHAR
STARTCHAR uni1E00
ENCODING 7680
SWIDTH 795 0
DWIDTH 9 0
BBX 9 12 0 -3
BITMAP
0800
1C00
1C00
3E00
2600
3F00
4300
4300
C380
0000
0C00
0C00
ENDCHAR
STARTCHAR uni1E01
ENCODING 7681
SWIDTH 556 0
DWIDTH 6 0
BBX 6 9 0 -3
BITMAP
70
18
F8
D8
D8
6C
00
30
30
ENDCHAR
STARTCHAR uni1E02
ENCODING 7682
SWIDTH 639 0
DWIDTH 7 0
BBX 6 12 0 0
BITMAP
10
10
00
F8
6C
6C
68
70
6C
6C
6C
F8
ENDCHAR
STARTCHAR uni1E03
ENCODING 7683
SWIDTH 640 0
DWIDTH 7 0
BBX 7 12 0 0
BITMAP
20
20
00
E0
60
60
6C
7E
66
66
66
7C
ENDCHAR
STARTCHAR uni1E04
ENCODING 7684
SWIDTH 639 0
DWIDTH 7 0
BBX 6 12 0 -3
BITMAP
F8
6C
6C
68
70
6C
6C
6C
F8
00
10
10
ENDCHAR
STARTCHAR uni1E05
ENCODING 7685
SWIDTH 640 0
DWIDTH 7 0
BBX 7 12 0 -3
BITMAP
E0
60
60
6C
7E
66
66
66
7C
00
10
10
ENDCHAR
STARTCHAR uni1E06
ENCODING 7686
SWIDTH 639 0
DWIDTH 7 0
BBX 6 11 0 -2
BITMAP
F8
6C
6C
68
70
6C
6C
6C
F8
00
38
ENDCHAR
STARTCHAR uni1E07
ENCODING 7687
SWIDTH 640 0
DWIDTH 7 0
BBX 7 11 0 -2
BITMAP
E0
60
60
6C
7E
66
66
66
7C
00
38
ENDCHAR
STARTCHAR uni1E08
ENCODING 7688
SWIDTH 711 0
DWIDTH 8 0
BBX 7 14 0 -2
BITMAP
0C
10
00
3E
62
C0
C0
C0
C0
C0
62
3E
10
18
ENDCHAR
STARTCHAR uni1E09
ENCODING 7689
SWIDTH 541 0
DWIDTH 6 0
BBX 5 11 0 -2
BITMAP
18
20
00
78
C8
C0
C0
E0
78
20
30
ENDCHAR
STARTCHAR uni1E0A
ENCODING 7690
SWIDTH 794 0
DWIDTH 9 0
BBX 8 12 0 0
BITMAP
10
10
00
FC
66
63
63
63
63
63
66
FC
ENDCHAR
STARTCHAR uni1E0B
ENCODING 7691
SWIDTH 652 0
DWIDTH 7 0
BBX 7 12 0 0
BITMAP
08
08
00
1C
0C
0C
7C
CC
CC
CC
FC
6E
ENDCHAR
STARTCHAR uni1E0C
ENCODING 7692
SWIDTH 794 0
DWIDTH 9 0
BBX 8 12 0 -3
BITMAP
FC
66
63
63
63
63
63
66
FC
00
10
10
ENDCHAR
STARTCHAR uni1E0D
ENCODING 7693
SWIDTH 652 0
DWIDTH 7 0
BBX 7 12 0 -3
BITMAP
1C
0C
0C
7C
CC
CC
CC
FC
6E
00
10
10
ENDCHAR
STARTCHAR uni1E0E
ENCODING 7694
SWIDTH 794 0
DWIDTH 9 0
BBX 8 11 0 -2
BITMAP
FC
66
63
63
63
63
63
66
FC
00
38
ENDCHAR
STARTCHAR uni1E0F
ENCODING 7695
SWIDTH 652 0
DWIDTH 7 0
BBX 7 11 0 -2
BITMAP
1C
0C
0C
7C
CC
CC
CC
FC
6E
00
38
ENDCHAR
STARTCHAR uni1E10
ENCODING 7696
SWIDTH 794 0
DWIDTH 9 0
BBX 8 11 0 -2
BITMAP
FC
66
63
63
63
63
63
66
FC
10
18
ENDCHAR
STARTCHAR uni1E11
ENCODING 7697
SWIDTH 652 0
DWIDTH 7 0
BBX 7 11 0 -2
BITMAP
1C
0C
0C
7C
CC
CC
CC
FC
6E
10
18
ENDCHAR
STARTCHAR uni1E12
ENCODING 7698
SWIDTH 794 0
DWIDTH 9 0
BBX 8 12 0 -3
BITMAP
FC
66
63
63
63
63
63
66
FC
00
18
24
ENDCHAR
STARTCHAR uni1E13
ENCODING 7699
SWIDTH 652 0
DWIDTH 7 0
BBX 7 12 0 -3
BITMAP
1C
0C
0C
7C
CC
CC
CC
FC
6E
00
30
48
ENDCHAR
STARTCHAR uni1E14
ENCODING 7700
SWIDTH 601 0
DWIDTH 7 0
BBX 6 14 0 0
BITMAP
60
10
00
70
00
FC
64
60
68
78
68
60
64
FC
ENDCHAR
STARTCHAR uni1E15
ENCODING 7701
SWIDTH 568 0
DWIDTH 6 0
BBX 5 11 0 0
BITMAP
C0
20
00
70
00
70
D8
F8
C0
E0
78
ENDCHAR
STARTCHAR uni1E16
ENCODING 7702
SWIDTH 601 0
DWIDTH 7 0
BBX 6 14 0 0
BITMAP
18
20
00
70
00
FC
64
60
68
78
68
60
64
FC
ENDCHAR
STARTCHAR uni1E17
ENCODING 7703
SWIDTH 568 0
DWIDTH 6 0
BBX 5 11 0 0
BITMAP
18
20
00
70
00
70
D8
F8
C0
E0
78
ENDCHAR
STARTCHAR uni1E18
ENCODING 7704
SWIDTH 601 0
DWIDTH 7 0
BBX 6 12 0 -3
BITMAP
FC
64
60
68
78
68
60
64
FC
00
30
48
ENDCHAR
STARTCHAR uni1E19
ENCODING 7705
SWIDTH 568 0
DWIDTH 6 0
BBX 5 9 0 -3
BITMAP
70
D8
F8
C0
E0
78
00
60
90
ENDCHAR
STARTCHAR uni1E1A
ENCODING 7706
SWIDTH 601 0
DWIDTH 7 0
BBX 6 12 0 -3
BITMAP
FC
64
60
68
78
68
60
64
FC
00
78
78
ENDCHAR
STARTCHAR uni1E1B
ENCODING 7707
SWIDTH 568 0
DWIDTH 6 0
BBX 5 9 0 -3
BITMAP
70
D8
F8
C0
E0
78
00
F0
F0
ENDCHAR
STARTCHAR uni1E1C
ENCODING 7708
SWIDTH 601 0
DWIDTH 7 0
BBX 6 14 0 -2
BITMAP
48
30
00
FC
64
60
68
78
68
60
64
FC
20
30
ENDCHAR
STARTCHAR uni1E1D
ENCODING 7709
SWIDTH 568 0
DWIDTH 6 0
BBX 5 11 0 -2
BITMAP
48
30
00
70
D8
F8
C0
E0
78
20
30
ENDCHAR
STARTCHAR uni1E1E
ENCODING 7710
SWIDTH 584 0
DWIDTH 6 0
BBX 6 12 0 0
BITMAP
20
20
00
FC
64
60
68
78
68
60
60
E0
ENDCHAR
STARTCHAR uni1E1F
ENCODING 7711
SWIDTH 416 0
DWIDTH 5 0
BBX 5 12 0 0
BITMAP
20
20
00
38
68
60
F0
60
60
60
60
F0
ENDCHAR
STARTCHAR uni1E20
ENCODING 7712
SWIDTH 753 0
DWIDTH 8 0
BBX 8 11 0 0
BITMAP
38
00
3E
62
C0
C0
C0
CF
C6
66
3E
ENDCHAR
STARTCHAR uni1E21
ENCODING 7713
SWIDTH 599 0
DWIDTH 7 0
BBX 6 10 0 -2
BITMAP
70
00
7C
D8
D8
70
FC
7C
CC
F8
ENDCHAR
STARTCHAR uni1E22
ENCODING 7714
SWIDTH 798 0
DWIDTH 9 0
BBX 9 12 0 0
BITMAP
0800
0800
0000
F780
6300
6300
6300
7F00
6300
6300
6300
F780
ENDCHAR
STARTCHAR uni1E23
ENCODING 7715
SWIDTH 654 0
DWIDTH 7 0
BBX 7 12 0 0
BITMAP
20
20
00
E0
60
60
6C
7C
6C
6C
6C
FE
ENDCHAR
STARTCHAR uni1E24
ENCODING 7716
SWIDTH 798 0
DWIDTH 9 0
BBX 9 12 0 -3
BITMAP
F780
6300
6300
6300
7F00
6300
6300
6300
F780
0000
0800
0800
ENDCHAR
STARTCHAR uni1E25
ENCODING 7717
SWIDTH 654 0
DWIDTH 7 0
BBX 7 12 0 -3
BITMAP
E0
60
60
6C
7C
6C
6C
6C
FE
00
10
10
ENDCHAR
STARTCHAR uni1E26
ENCODING 7718
SWIDTH 798 0
DWIDTH 9 0
BBX 9 12 0 0
BITMAP
1400
1400
0000
F780
6300
6300
6300
7F00
6300
6300
6300
F780
ENDCHAR
STARTCHAR uni1E27
ENCODING 7719
SWIDTH 654 0
DWIDTH 7 0
BBX 7 12 0 0
BITMAP
50
50
00
E0
60
60
6C
7C
6C
6C
6C
FE
ENDCHAR
STARTCHAR uni1E28
ENCODING 7720
SWIDTH 798 0
DWIDTH 9 0
BBX 9 11 0 -2
BITMAP
F780
6300
6300
6300
7F00
6300
6300
6300
F780
0800
0C00
ENDCHAR
STARTCHAR uni1E29
ENCODING 7721
SWIDTH 654 0
DWIDTH 7 0
BBX 7 11 0 -2
BITMAP
E0
60
60
6C
7C
6C
6C
6C
FE
10
18
ENDCHAR
STARTCHAR uni1E2A
ENCODING 7722
SWIDTH 798 0
DWIDTH 9 0
BBX 9 12 0 -3
BITMAP
F780
6300
6300
6300
7F00
6300
6300
6300
F780
0000
1200
0C00
ENDCHAR
STARTCHAR uni1E2B
ENCODING 7723
SWIDTH 654 0
DWIDTH 7 0
BBX 7 12 0 -3
BITMAP
E0
60
60
6C
7C
6C
6C
6C
FE
00
24
18
ENDCHAR
STARTCHAR uni1E2C
ENCODING 7724
SWIDTH 349 0
DWIDTH 4 0
BBX 4 12 0 -3
BITMAP
F0
60
60
60
60
60
60
60
F0
00
F0
F0
ENDCHAR
STARTCHAR uni1E2D
ENCODING 7725
SWIDTH 325 0
DWIDTH 4 0
BBX 4 12 0 -3
BITMAP
60
60
00
E0
60
60
60
60
F0
00
F0
F0
ENDCHAR
STARTCHAR uni1E2E
ENCODING 7726
SWIDTH 349 0
DWIDTH 4 0
BBX 4 14 0 0
BITMAP
30
40
00
A0
A0
F0
60
60
60
60
60
60
60
F0
ENDCHAR
STARTCHAR uni1E2F
ENCODING 7727
SWIDTH 325 0
DWIDTH 4 0
BBX 4 11 0 0
BITMAP
30
40
00
A0
A0
E0
60
60
60
60
F0
ENDCHAR
STARTCHAR uni1E30
ENCODING 7728
SWIDTH 747 0
DWIDTH 8 0
BBX 8 12 0 0
BITMAP
0C
10
00
F2
66
6C
78
78
7C
6E
66
F7
ENDCHAR
STARTCHAR uni1E31
ENCODING 7729
SWIDTH 654 0
DWIDTH 7 0
BBX 7 12 0 0
BITMAP
18
20
00
E0
60
60
64
6C
78
78
6C
FE
ENDCHAR
STARTCHAR uni1E32
ENCODING 7730
SWIDTH 747 0
DWIDTH 8 0
BBX 8 12 0 -3
BITMAP
F2
66
6C
78
78
7C
6E
66
F7
00
08
08
ENDCHAR
STARTCHAR uni1E33
ENCODING 7731
SWIDTH 654 0
DWIDTH 7 0
BBX 7 12 0 -3
BITMAP
E0
60
60
64
6C
78
78
6C
FE
00
10
10
ENDCHAR
STARTCHAR uni1E34
ENCODING 7732
SWIDTH 747 0
DWIDTH 8 0
BBX 8 11 0 -2
BITMAP
F2
66
6C
78
78
7C
6E
66
F7
00
1C
ENDCHAR
STARTCHAR uni1E35
ENCODING 7733
SWIDTH 654 0
DWIDTH 7 0
BBX 7 11 0 -2
BITMAP
E0
60
60
64
6C
78
78
6C
FE
00
38
ENDCHAR
STARTCHAR uni1E36
ENCODING 7734
SWIDTH 584 0
DWIDTH 6 0
BBX 7 12 0 -3
BITMAP
F0
60
60
60
60
60
60
62
FE
00
10
10
ENDCHAR
STARTCHAR uni1E37
ENCODING 7735
SWIDTH 325 0
DWIDTH 4 0
BBX 4 12 0 -3
BITMAP
E0
60
60
60
60
60
60
60
F0
00
20
20
ENDCHAR
STARTCHAR uni1E38
ENCODING 7736
SWIDTH 584 0
DWIDTH 6 0
BBX 7 14 0 -3
BITMAP
70
00
F0
60
60
60
60
60
60
62
FE
00
10
10
ENDCHAR
STARTCHAR uni1E39
ENCODING 7737
SWIDTH 325 0
DWIDTH 4 0
BBX 4 14 0 -3
BITMAP
E0
00
E0
60
60
60
60
60
60
60
F0
00
20
20
ENDCHAR
STARTCHAR uni1E3A
ENCODING 7738
SWIDTH 584 0
DWIDTH 6 0
BBX 7 11 0 -2
BITMAP
F0
60
60
60
60
60
60
62
FE
00
38
ENDCHAR
STARTCHAR uni1E3B
ENCODING 7739
SWIDTH 325 0
DWIDTH 4 0
BBX 4 11 0 -2
BITMAP
E0
60
60
60
60
60
60
60
F0
00
70
ENDCHAR
STARTCHAR uni1E3C
ENCODING 7740
SWIDTH 584 0
DWIDTH 6 0
BBX 7 12 0 -3
BITMAP
F0
60
60
60
60
60
60
62
FE
00
30
48
ENDCHAR
STARTCHAR uni1E3D
ENCODING 7741
SWIDTH 325 0
DWIDTH 4 0
BBX 4 12 0 -3
BITMAP
E0
60
60
60
60
60
60
60
F0
00
60
90
ENDCHAR
STARTCHAR uni1E3E
ENCODING 7742
SWIDTH 904 0
DWIDTH 10 0
BBX 10 12 0 0
BITMAP
0600
0800
0000
E1C0
7180
7380
7380
5D80
5D80
4D80
4980
E3C0
ENDCHAR
STARTCHAR uni1E3F
ENCODING 7743
SWIDTH 967 0
DWIDTH 11 0
BBX 10 9 0 0
BITMAP
0600
0800
0000
E980
7F80
6D80
6D80
6D80
FFC0
ENDCHAR
STARTCHAR uni1E40
ENCODING 7744
SWIDTH 904 0
DWIDTH 10 0
BBX 10 12 0 0
BITMAP
0800
0800
0000
E1C0
7180
7380
7380
5D80
5D80
4D80
4980
E3C0
ENDCHAR
STARTCHAR uni1E41
ENCODING 7745
SWIDTH 967 0
DWIDTH 11 0
BBX 10 9 0 0
BITMAP
0800
0800
0000
E980
7F80
6D80
6D80
6D80
FFC0
ENDCHAR
STARTCHAR uni1E42
ENCODING 7746
SWIDTH 904 0
DWIDTH 10 0
BBX 10 12 0 -3
BITMAP
E1C0
7180
7380
7380
5D80
5D80
4D80
4980
E3C0
0000
0400
0400
ENDCHAR
STARTCHAR uni1E43
ENCODING 7747
SWIDTH 967 0
DWIDTH 11 0
BBX 10 9 0 -3
BITMAP
E980
7F80
6D80
6D80
6D80
FFC0
0000
0400
0400
ENDCHAR
STARTCHAR uni1E44
ENCODING 7748
SWIDTH 788 0
DWIDTH 9 0
BBX 8 12 0 0
BITMAP
10
10
00
E7
62
72
72
5A
5E
4E
46
E6
ENDCHAR
STARTCHAR uni1E45
ENCODING 7749
SWIDTH 654 0
DWIDTH 7 0
BBX 7 9 0 0
BITMAP
10
10
00
EC
7C
6C
6C
6C
FE
ENDCHAR
STARTCHAR uni1E46
ENCODING 7750
SWIDTH 788 0
DWIDTH 9 0
BBX 8 12 0 -3
BITMAP
E7
62
72
72
5A
5E
4E
46
E6
00
08
08
ENDCHAR
STARTCHAR uni1E47
ENCODING 7751
SWIDTH 654 0
DWIDTH 7 0
BBX 7 9 0 -3
BITMAP
EC
7C
6C
6C
6C
FE
00
10
10
ENDCHAR
STARTCHAR uni1E48
ENCODING 7752
SWIDTH 788 0
DWIDTH 9 0
BBX 8 11 0 -2
BITMAP
E7
62
72
72
5A
5E
4E
46
E6
00
1C
ENDCHAR
STARTCHAR uni1E49
ENCODING 7753
SWIDTH 654 0
DWIDTH 7 0
BBX 7 8 0 -2
BITMAP
EC
7C
6C
6C
6C
FE
00
38
ENDCHAR
STARTCHAR uni1E4A
ENCODING 7754
SWIDTH 788 0
DWIDTH 9 0
BBX 8 12 0 -3
BITMAP
E7
62
72
72
5A
5E
4E
46
E6
00
18
24
ENDCHAR
STARTCHAR uni1E4B
ENCODING 7755
SWIDTH 654 0
DWIDTH 7 0
BBX 7 9 0 -3
BITMAP
EC
7C
6C
6C
6C
FE
00
18
24
ENDCHAR
STARTCHAR uni1E4C
ENCODING 7756
SWIDTH 810 0
DWIDTH 9 0
BBX 8 14 0 0
BITMAP
0C
10
00
3C
3C
3C
66
C3
C3
C3
C3
C3
66
3C
ENDCHAR
STARTCHAR uni1E4D
ENCODING 7757
SWIDTH 617 0
DWIDTH 7 0
BBX 6 11 0 0
BITMAP
18
20
00
78
78
78
CC
CC
CC
CC
78
ENDCHAR
STARTCHAR uni1E4E
ENCODING 7758
SWIDTH 810 0
DWIDTH 9 0
BBX 8 14 0 0
BITMAP
14
14
00
3C
3C
3C
66
C3
C3
C3
C3
C3
66
3C
ENDCHAR
STARTCHAR uni1E4F
ENCODING 7759
SWIDTH 617 0
DWIDTH 7 0
BBX 6 11 0 0
BITMAP
28
28
00
78
78
78
CC
CC
CC
CC
78
ENDCHAR
STARTCHAR uni1E50
ENCODING 7760
SWIDTH 810 0
DWIDTH 9 0
BBX 8 14 0 0
BITMAP
30
08
00
1C
00
3C
66
C3
C3
C3
C3
C3
66
3C
ENDCHAR
STARTCHAR uni1E51
ENCODING 7761
SWIDTH 617 0
DWIDTH 7 0
BBX 6 11 0 0
BITMAP
60
10
00
38
00
78
CC
CC
CC
CC
78
ENDCHAR
STARTCHAR uni1E52
ENCODING 7762
SWIDTH 810 0
DWIDTH 9 0
BBX 8 14 0 0
BITMAP
0C
10
00
1C
00
3C
66
C3
C3
C3
C3
C3
66
3C
ENDCHAR
STARTCHAR uni1E53
ENCODING 7763
SWIDTH 617 0
DWIDTH 7 0
BBX 6 11 0 0
BITMAP
18
20
00
38
00
78
CC
CC
CC
CC
78
ENDCHAR
STARTCHAR uni1E54
ENCODING 7764
SWIDTH 614 0
DWIDTH 7 0
BBX 6 12 0 0
BITMAP
18
20
00
F8
6C
6C
6C
78
60
60
60
F0
ENDCHAR
STARTCHAR uni1E55
ENCODING 7765
SWIDTH 652 0
DWIDTH 7 0
BBX 7 11 0 -2
BITMAP
0C
10
00
EC
7E
66
66
66
7C
60
F0
ENDCHAR
STARTCHAR uni1E56
ENCODING 7766
SWIDTH 614 0
DWIDTH 7 0
BBX 6 12 0 0
BITMAP
10
10
00
F8
6C
6C
6C
78
60
60
60
F0
ENDCHAR
STARTCHAR uni1E57
ENCODING 7767
SWIDTH 652 0
DWIDTH 7 0
BBX 7 11 0 -2
BITMAP
10
10
00
EC
7E
66
66
66
7C
60
F0
ENDCHAR
STARTCHAR uni1E58
ENCODING 7768
SWIDTH 720 0
DWIDTH 8 0
BBX 7 12 1 0
BITMAP
10
10
00
F8
6C
6C
6C
78
78
6C
6E
FE
ENDCHAR
STARTCHAR uni1E59
ENCODING 7769
SWIDTH 462 0
DWIDTH 5 0
BBX 5 9 0 0
BITMAP
20
20
00
E8
78
60
60
60
F0
ENDCHAR
STARTCHAR uni1E5A
ENCODING 7770
SWIDTH 720 0
DWIDTH 8 0
BBX 7 12 1 -3
BITMAP
F8
6C
6C
6C
78
78
6C
6E
FE
00
10
10
ENDCHAR
STARTCHAR uni1E5B
ENCODING 7771
SWIDTH 462 0
DWIDTH 5 0
BBX 5 9 0 -3
BITMAP
E8
78
60
60
60
F0
00
20
20
ENDCHAR
STARTCHAR uni1E5C
ENCODING 7772
SWIDTH 720 0
DWIDTH 8 0
BBX 7 14 1 -3
BITMAP
38
00
F8
6C
6C
6C
78
78
6C
6E
FE
00
10
10
ENDCHAR
STARTCHAR uni1E5D
ENCODING 7773
SWIDTH 462 0
DWIDTH 5 0
BBX 5 11 0 -3
BITMAP
70
00
E8
78
60
60
60
F0
00
20
20
ENDCHAR
STARTCHAR uni1E5E
ENCODING 7774
SWIDTH 720 0
DWIDTH 8 0
BBX 7 11 1 -2
BITMAP
F8
6C
6C
6C
78
78
6C
6E
FE
00
38
ENDCHAR
STARTCHAR uni1E5F
ENCODING 7775
SWIDTH 462 0
DWIDTH 5 0
BBX 5 8 0 -2
BITMAP
E8
78
60
60
60
F0
00
70
ENDCHAR
STARTCHAR uni1E60
ENCODING 7776
SWIDTH 556 0
DWIDTH 6 0
BBX 6 12 0 0
BITMAP
20
20
00
78
C8
C0
E0
78
1C
0C
8C
F8
ENDCHAR
STARTCHAR uni1E61
ENCODING 7777
SWIDTH 525 0
DWIDTH 6 0
BBX 5 9 0 0
BITMAP
20
20
00
70
D0
F0
78
98
F0
ENDCHAR
STARTCHAR uni1E62
ENCODING 7778
SWIDTH 556 0
DWIDTH 6 0
BBX 6 12 0 -3
BITMAP
78
C8
C0
E0
78
1C
0C
8C
F8
00
10
10
ENDCHAR
STARTCHAR uni1E63
ENCODING 7779
SWIDTH 525 0
DWIDTH 6 0
BBX 5 9 0 -3
BITMAP
70
D0
F0
78
98
F0
00
20
20
ENDCHAR
STARTCHAR uni1E64
ENCODING 7780
SWIDTH 556 0
DWIDTH 6 0
BBX 6 15 0 0
BITMAP
10
10
00
18
20
00
78
C8
C0
E0
78
1C
0C
8C
F8
ENDCHAR
STARTCHAR uni1E65
ENCODING 7781
SWIDTH 525 0
DWIDTH 6 0
BBX 5 12 0 0
BITMAP
20
20
00
30
40
00
70
D0
F0
78
98
F0
ENDCHAR
STARTCHAR uni1E66
ENCODING 7782
SWIDTH 556 0
DWIDTH 6 0
BBX 6 14 0 0
BITMAP
10
10
00
48
30
78
C8
C0
E0
78
1C
0C
8C
F8
ENDCHAR
STARTCHAR uni1E67
ENCODING 7783
SWIDTH 525 0
DWIDTH 6 0
BBX 5 11 0 0
BITMAP
20
20
00
90
60
70
D0
F0
78
98
F0
ENDCHAR
STARTCHAR uni1E68
ENCODING 7784
SWIDTH 556 0
DWIDTH 6 0
BBX 6 15 0 -3
BITMAP
20
20
00
78
C8
C0
E0
78
1C
0C
8C
F8
00
10
10
ENDCHAR
STARTCHAR uni1E69
ENCODING 7785
SWIDTH 525 0
DWIDTH 6 0
BBX 5 12 0 -3
BITMAP
20
20
00
70
D0
F0
78
98
F0
00
20
20
ENDCHAR
STARTCHAR uni1E6A
ENCODING 7786
SWIDTH 714 0
DWIDTH 8 0
BBX 8 12 0 0
BITMAP
08
08
00
FF
99
18
18
18
18
18
18
3C
ENDCHAR
STARTCHAR uni1E6B
ENCODING 7787
SWIDTH 389 0
DWIDTH 4 0
BBX 4 12 0 0
BITMAP
20
20
00
60
60
60
F0
60
60
60
60
70
ENDCHAR
STARTCHAR uni1E6C
ENCODING 7788
SWIDTH 714 0
DWIDTH 8 0
BBX 8 12 0 -3
BITMAP
FF
99
18
18
18
18
18
18
3C
00
08
08
ENDCHAR
STARTCHAR uni1E6D
ENCODING 7789
SWIDTH 389 0
DWIDTH 4 0
BBX 4 12 0 -3
BITMAP
60
60
60
F0
60
60
60
60
70
00
20
20
ENDCHAR
STARTCHAR uni1E6E
ENCODING 7790
SWIDTH 714 0
DWIDTH 8 0
BBX 8 11 0 -2
BITMAP
FF
99
18
18
18
18
18
18
3C
00
1C
ENDCHAR
STARTCHAR uni1E6F
ENCODING 7791
SWIDTH 389 0
DWIDTH 4 0
BBX 4 11 0 -2
BITMAP
60
60
60
F0
60
60
60
60
70
00
70
ENDCHAR
STARTCHAR uni1E70
ENCODING 7792
SWIDTH 714 0
DWIDTH 8 0
BBX 8 12 0 -3
BITMAP
FF
99
18
18
18
18
18
18
3C
00
18
24
ENDCHAR
STARTCHAR uni1E71
ENCODING 7793
SWIDTH 389 0
DWIDTH 4 0
BBX 4 12 0 -3
BITMAP
60
60
60
F0
60
60
60
60
70
00
60
90
ENDCHAR
STARTCHAR uni1E72
ENCODING 7794
SWIDTH 747 0
DWIDTH 8 0
BBX 8 12 0 -3
BITMAP
F7
62
62
62
62
62
62
62
3C
00
28
28
ENDCHAR
STARTCHAR uni1E73
ENCODING 7795
SWIDTH 654 0
DWIDTH 7 0
BBX 7 9 0 -3
BITMAP
FC
6C
6C
6C
7C
6E
00
28
28
ENDCHAR
STARTCHAR uni1E74
ENCODING 7796
SWIDTH 747 0
DWIDTH 8 0
BBX 8 12 0 -3
BITMAP
F7
62
62
62
62
62
62
62
3C
00
3C
3C
ENDCHAR
STARTCHAR uni1E75
ENCODING 7797
SWIDTH 654 0
DWIDTH 7 0
BBX 7 9 0 -3
BITMAP
FC
6C
6C
6C
7C
6E
00
3C
3C
ENDCHAR
STARTCHAR uni1E76
ENCODING 7798
SWIDTH 747 0
DWIDTH 8 0
BBX 8 12 0 -3
BITMAP
F7
62
62
62
62
62
62
62
3C
00
18
24
ENDCHAR
STARTCHAR uni1E77
ENCODING 7799
SWIDTH 654 0
DWIDTH 7 0
BBX 7 9 0 -3
BITMAP
FC
6C
6C
6C
7C
6E
00
18
24
ENDCHAR
STARTCHAR uni1E78
ENCODING 7800
SWIDTH 747 0
DWIDTH 8 0
BBX 8 15 0 0
BITMAP
0C
10
00
3C
3C
00
F7
62
62
62
62
62
62
62
3C
ENDCHAR
STARTCHAR uni1E79
ENCODING 7801
SWIDTH 654 0
DWIDTH 7 0
BBX 7 12 0 0
BITMAP
18
20
00
78
78
00
FC
6C
6C
6C
7C
6E
ENDCHAR
STARTCHAR uni1E7A
ENCODING 7802
SWIDTH 747 0
DWIDTH 8 0
BBX 8 14 0 0
BITMAP
28
28
00
38
00
F7
62
62
62
62
62
62
62
3C
ENDCHAR
STARTCHAR uni1E7B
ENCODING 7803
SWIDTH 654 0
DWIDTH 7 0
BBX 7 11 0 0
BITMAP
28
28
00
38
00
FC
6C
6C
6C
7C
6E
ENDCHAR
STARTCHAR uni1E7C
ENCODING 7804
SWIDTH 753 0
DWIDTH 8 0
BBX 8 12 0 0
BITMAP
3C
3C
00
E3
62
62
72
34
34
1C
18
18
ENDCHAR
STARTCHAR uni1E7D
ENCODING 7805
SWIDTH 657 0
DWIDTH 7 0
BBX 7 9 0 0
BITMAP
78
78
00
E6
64
64
38
38
10
ENDCHAR
STARTCHAR uni1E7E
ENCODING 7806
SWIDTH 753 0
DWIDTH 8 0
BBX 8 12 0 -3
BITMAP
E3
62
62
72
34
34
1C
18
18
00
08
08
ENDCHAR
STARTCHAR uni1E7F
ENCODING 7807
SWIDTH 657 0
DWIDTH 7 0
BBX 7 9 0 -3
BITMAP
E6
64
64
38
38
10
00
10
10
ENDCHAR
STARTCHAR Wgrave
ENCODING 7808
SWIDTH 955 0
DWIDTH 10 0
BBX 11 12 0 0
BITMAP
1800
0400
0000
E660
6640
6640
6E40
7B80
3B80
3380
3100
1100
ENDCHAR
STARTCHAR wgrave
ENCODING 7809
SWIDTH 880 0
DWIDTH 10 0
BBX 10 9 0 0
BITMAP
1800
0400
0000
E4C0
6E80
6E80
7F00
3300
3300
ENDCHAR
STARTCHAR Wacute
ENCODING 7810
SWIDTH 955 0
DWIDTH 10 0
BBX 11 12 0 0
BITMAP
0600
0800
0000
E660
6640
6640
6E40
7B80
3B80
3380
3100
1100
ENDCHAR
STARTCHAR wacute
ENCODING 7811
SWIDTH 880 0
DWIDTH 10 0
BBX 10 9 0 0
BITMAP
0600
0800
0000
E4C0
6E80
6E80
7F00
3300
3300
ENDCHAR
STARTCHAR Wdieresis
ENCODING 7812
SWIDTH 955 0
DWIDTH 10 0
BBX 11 12 0 0
BITMAP
0A00
0A00
0000
E660
6640
6640
6E40
7B80
3B80
3380
3100
1100
ENDCHAR
STARTCHAR wdieresis
ENCODING 7813
SWIDTH 880 0
DWIDTH 10 0
BBX 10 9 0 0
BITMAP
1400
1400
0000
E4C0
6E80
6E80
7F00
3300
3300
ENDCHAR
STARTCHAR uni1E86
ENCODING 7814
SWIDTH 955 0
DWIDTH 10 0
BBX 11 12 0 0
BITMAP
0400
0400
0000
E660
6640
6640
6E40
7B80
3B80
3380
3100
1100
ENDCHAR
STARTCHAR uni1E87
ENCODING 7815
SWIDTH 880 0
DWIDTH 10 0
BBX 10 9 0 0
BITMAP
0800
0800
0000
E4C0
6E80
6E80
7F00
3300
3300
ENDCHAR
STARTCHAR uni1E88
ENCODING 7816
SWIDTH 955 0
DWIDTH 10 0
BBX 11 12 0 -3
BITMAP
E660
6640
6640
6E40
7B80
3B80
3380
3100
1100
0000
0400
0400
ENDCHAR
STARTCHAR uni1E89
ENCODING 7817
SWIDTH 880 0
DWIDTH 10 0
BBX 10 9 0 -3
BITMAP
E4C0
6E80
6E80
7F00
3300
3300
0000
0400
0400
ENDCHAR
STARTCHAR uni1E8A
ENCODING 7818
SWIDTH 702 0
DWIDTH 8 0
BBX 8 12 0 0
BITMAP
10
10
00
F3
62
36
3C
18
2C
6E
46
CF
ENDCHAR
STARTCHAR uni1E8B
ENCODING 7819
SWIDTH 608 0
DWIDTH 7 0
BBX 7 9 0 0
BITMAP
10
10
00
F6
74
38
38
4C
CE
ENDCHAR
STARTCHAR uni1E8C
ENCODING 7820
SWIDTH 702 0
DWIDTH 8 0
BBX 8 12 0 0
BITMAP
28
28
00
F3
62
36
3C
18
2C
6E
46
CF
ENDCHAR
STARTCHAR uni1E8D
ENCODING 7821
SWIDTH 608 0
DWIDTH 7 0
BBX 7 9 0 0
BITMAP
28
28
00
F6
74
38
38
4C
CE
ENDCHAR
STARTCHAR uni1E8E
ENCODING 7822
SWIDTH 717 0
DWIDTH 8 0
BBX 8 12 0 0
BITMAP
10
10
00
E3
62
72
34
38
18
18
18
3C
ENDCHAR
STARTCHAR uni1E8F
ENCODING 7823
SWIDTH 654 0
DWIDTH 7 0
BBX 7 11 0 -2
BITMAP
10
10
00
E6
64
64
38
38
10
10
60
ENDCHAR
STARTCHAR uni1E90
ENCODING 7824
SWIDTH 639 0
DWIDTH 7 0
BBX 6 12 0 0
BITMAP
30
48
00
FC
8C
18
38
30
70
60
C4
FC
ENDCHAR
STARTCHAR uni1E91
ENCODING 7825
SWIDTH 584 0
DWIDTH 6 0
BBX 5 9 1 0
BITMAP
30
48
00
F8
B8
30
60
E8
F8
ENDCHAR
STARTCHAR uni1E92
ENCODING 7826
SWIDTH 639 0
DWIDTH 7 0
BBX 6 12 0 -3
BITMAP
FC
8C
18
38
30
70
60
C4
FC
00
20
20
ENDCHAR
STARTCHAR uni1E93
ENCODING 7827
SWIDTH 584 0
DWIDTH 6 0
BBX 5 9 1 -3
BITMAP
F8
B8
30
60
E8
F8
00
20
20
ENDCHAR
STARTCHAR uni1E94
ENCODING 7828
SWIDTH 639 0
DWIDTH 7 0
BBX 6 11 0 -2
BITMAP
FC
8C
18
38
30
70
60
C4
FC
00
70
ENDCHAR
STARTCHAR uni1E95
ENCODING 7829
SWIDTH 584 0
DWIDTH 6 0
BBX 5 8 1 -2
BITMAP
F8
B8
30
60
E8
F8
00
70
ENDCHAR
STARTCHAR uni1E96
ENCODING 7830
SWIDTH 654 0
DWIDTH 7 0
BBX 7 11 0 -2
BITMAP
E0
60
60
6C
7C
6C
6C
6C
FE
00
38
ENDCHAR
STARTCHAR uni1E97
ENCODING 7831
SWIDTH 389 0
DWIDTH 4 0
BBX 4 12 0 0
BITMAP
50
50
00
60
60
60
F0
60
60
60
60
70
ENDCHAR
STARTCHAR uni1E98
ENCODING 7832
SWIDTH 880 0
DWIDTH 10 0
BBX 10 9 0 0
BITMAP
0C00
0C00
0000
E4C0
6E80
6E80
7F00
3300
3300
ENDCHAR
STARTCHAR uni1E99
ENCODING 7833
SWIDTH 654 0
DWIDTH 7 0
BBX 7 11 0 -2
BITMAP
30
30
00
E6
64
64
38
38
10
10
60
ENDCHAR
STARTCHAR uni1EA0
ENCODING 7840
SWIDTH 795 0
DWIDTH 9 0
BBX 9 12 0 -3
BITMAP
0800
1C00
1C00
3E00
2600
3F00
4300
4300
C380
0000
0800
0800
ENDCHAR
STARTCHAR uni1EA1
ENCODING 7841
SWIDTH 556 0
DWIDTH 6 0
BBX 6 9 0 -3
BITMAP
70
18
F8
D8
D8
6C
00
10
10
ENDCHAR
STARTCHAR uni1EA4
ENCODING 7844
SWIDTH 795 0
DWIDTH 9 0
BBX 9 14 0 0
BITMAP
0600
0800
0000
0C00
1200
0800
1C00
1C00
3E00
2600
3F00
4300
4300
C380
ENDCHAR
STARTCHAR uni1EA5
ENCODING 7845
SWIDTH 556 0
DWIDTH 6 0
BBX 6 11 0 0
BITMAP
18
20
00
30
48
70
18
F8
D8
D8
6C
ENDCHAR
STARTCHAR uni1EA6
ENCODING 7846
SWIDTH 795 0
DWIDTH 9 0
BBX 9 14 0 0
BITMAP
1800
0400
0000
0C00
1200
0800
1C00
1C00
3E00
2600
3F00
4300
4300
C380
ENDCHAR
STARTCHAR uni1EA7
ENCODING 7847
SWIDTH 556 0
DWIDTH 6 0
BBX 6 11 0 0
BITMAP
60
10
00
30
48
70
18
F8
D8
D8
6C
ENDCHAR
STARTCHAR uni1EAA
ENCODING 7850
SWIDTH 795 0
DWIDTH 9 0
BBX 9 14 0 0
BITMAP
1E00
1E00
0000
0C00
1200
0800
1C00
1C00
3E00
2600
3F00
4300
4300
C380
ENDCHAR
STARTCHAR uni1EAB
ENCODING 7851
SWIDTH 556 0
DWIDTH 6 0
BBX 6 11 0 0
BITMAP
78
78
00
30
48
70
18
F8
D8
D8
6C
ENDCHAR
STARTCHAR uni1EAC
ENCODING 7852
SWIDTH 795 0
DWIDTH 9 0
BBX 9 15 0 -3
BITMAP
0C00
1200
0000
0800
1C00
1C00
3E00
2600
3F00
4300
4300
C380
0000
0800
0800
ENDCHAR
STARTCHAR uni1EAD
ENCODING 7853
SWIDTH 556 0
DWIDTH 6 0
BBX 6 12 0 -3
BITMAP
30
48
00
70
18
F8
D8
D8
6C
00
10
10
ENDCHAR
STARTCHAR uni1EAE
ENCODING 7854
SWIDTH 795 0
DWIDTH 9 0
BBX 9 15 0 0
BITMAP
0600
0800
0000
1200
0C00
0000
0800
1C00
1C00
3E00
2600
3F00
4300
4300
C380
ENDCHAR
STARTCHAR uni1EAF
ENCODING 7855
SWIDTH 556 0
DWIDTH 6 0
BBX 6 12 0 0
BITMAP
18
20
00
48
30
00
70
18
F8
D8
D8
6C
ENDCHAR
STARTCHAR uni1EB0
ENCODING 7856
SWIDTH 795 0
DWIDTH 9 0
BBX 9 15 0 0
BITMAP
1800
0400
0000
1200
0C00
0000
0800
1C00
1C00
3E00
2600
3F00
4300
4300
C380
ENDCHAR
STARTCHAR uni1EB1
ENCODING 7857
SWIDTH 556 0
DWIDTH 6 0
BBX 6 12 0 0
BITMAP
60
10
00
48
30
00
70
18
F8
D8
D8
6C
ENDCHAR
STARTCHAR uni1EB4
ENCODING 7860
SWIDTH 795 0
DWIDTH 9 0
BBX 9 15 0 0
BITMAP
1E00
1E00
0000
1200
0C00
0000
0800
1C00
1C00
3E00
2600
3F00
4300
4300
C380
ENDCHAR
STARTCHAR uni1EB5
ENCODING 7861
SWIDTH 556 0
DWIDTH 6 0
BBX 6 12 0 0
BITMAP
78
78
00
48
30
00
70
18
F8
D8
D8
6C
ENDCHAR
STARTCHAR uni1EB6
ENCODING 7862
SWIDTH 795 0
DWIDTH 9 0
BBX 9 15 0 -3
BITMAP
1200
0C00
0000
0800
1C00
1C00
3E00
2600
3F00
4300
4300
C380
0000
0800
0800
ENDCHAR
STARTCHAR uni1EB7
ENCODING 7863
SWIDTH 556 0
DWIDTH 6 0
BBX 6 12 0 -3
BITMAP
48
30
00
70
18
F8
D8
D8
6C
00
10
10
ENDCHAR
STARTCHAR uni1EB8
ENCODING 7864
SWIDTH 601 0
DWIDTH 7 0
BBX 6 12 0 -3
BITMAP
FC
64
60
68
78
68
60
64
FC
00
20
20
ENDCHAR
STARTCHAR uni1EB9
ENCODING 7865
SWIDTH 568 0
DWIDTH 6 0
BBX 5 9 0 -3
BITMAP
70
D8
F8
C0
E0
78
00
20
20
ENDCHAR
STARTCHAR uni1EBC
ENCODING 7868
SWIDTH 601 0
DWIDTH 7 0
BBX 6 12 0 0
BITMAP
78
78
00
FC
64
60
68
78
68
60
64
FC
ENDCHAR
STARTCHAR uni1EBD
ENCODING 7869
SWIDTH 568 0
DWIDTH 6 0
BBX 5 9 0 0
BITMAP
78
78
00
70
D8
F8
C0
E0
78
ENDCHAR
STARTCHAR uni1EBE
ENCODING 7870
SWIDTH 601 0
DWIDTH 7 0
BBX 6 14 0 0
BITMAP
18
20
00
30
48
FC
64
60
68
78
68
60
64
FC
ENDCHAR
STARTCHAR uni1EBF
ENCODING 7871
SWIDTH 568 0
DWIDTH 6 0
BBX 5 11 0 0
BITMAP
18
20
00
30
48
70
D8
F8
C0
E0
78
ENDCHAR
STARTCHAR uni1EC0
ENCODING 7872
SWIDTH 601 0
DWIDTH 7 0
BBX 6 14 0 0
BITMAP
60
10
00
30
48
FC
64
60
68
78
68
60
64
FC
ENDCHAR
STARTCHAR uni1EC1
ENCODING 7873
SWIDTH 568 0
DWIDTH 6 0
BBX 5 11 0 0
BITMAP
60
10
00
30
48
70
D8
F8
C0
E0
78
ENDCHAR
STARTCHAR uni1EC4
ENCODING 7876
SWIDTH 601 0
DWIDTH 7 0
BBX 6 14 0 0
BITMAP
78
78
00
30
48
FC
64
60
68
78
68
60
64
FC
ENDCHAR
STARTCHAR uni1EC5
ENCODING 7877
SWIDTH 568 0
DWIDTH 6 0
BBX 5 11 0 0
BITMAP
78
78
00
30
48
70
D8
F8
C0
E0
78
ENDCHAR
STARTCHAR uni1EC6
ENCODING 7878
SWIDTH 601 0
DWIDTH 7 0
BBX 6 15 0 -3
BITMAP
30
48
00
FC
64
60
68
78
68
60
64
FC
00
20
20
ENDCHAR
STARTCHAR uni1EC7
ENCODING 7879
SWIDTH 568 0
DWIDTH 6 0
BBX 5 12 0 -3
BITMAP
30
48
00
70
D8
F8
C0
E0
78
00
20
20
ENDCHAR
STARTCHAR uni1ECA
ENCODING 7882
SWIDTH 349 0
DWIDTH 4 0
BBX 4 12 0 -3
BITMAP
F0
60
60
60
60
60
60
60
F0
00
20
20
ENDCHAR
STARTCHAR uni1ECB
ENCODING 7883
SWIDTH 325 0
DWIDTH 4 0
BBX 4 12 0 -3
BITMAP
60
60
00
E0
60
60
60
60
F0
00
20
20
ENDCHAR
STARTCHAR uni1ECC
ENCODING 7884
SWIDTH 810 0
DWIDTH 9 0
BBX 8 12 0 -3
BITMAP
3C
66
C3
C3
C3
C3
C3
66
3C
00
08
08
ENDCHAR
STARTCHAR uni1ECD
ENCODING 7885
SWIDTH 617 0
DWIDTH 7 0
BBX 6 9 0 -3
BITMAP
78
CC
CC
CC
CC
78
00
10
10
ENDCHAR
STARTCHAR uni1ED0
ENCODING 7888
SWIDTH 810 0
DWIDTH 9 0
BBX 8 14 0 0
BITMAP
0C
10
00
18
24
3C
66
C3
C3
C3
C3
C3
66
3C
ENDCHAR
STARTCHAR uni1ED1
ENCODING 7889
SWIDTH 617 0
DWIDTH 7 0
BBX 6 11 0 0
BITMAP
18
20
00
30
48
78
CC
CC
CC
CC
78
ENDCHAR
STARTCHAR uni1ED2
ENCODING 7890
SWIDTH 810 0
DWIDTH 9 0
BBX 8 14 0 0
BITMAP
30
08
00
18
24
3C
66
C3
C3
C3
C3
C3
66
3C
ENDCHAR
STARTCHAR uni1ED3
ENCODING 7891
SWIDTH 617 0
DWIDTH 7 0
BBX 6 11 0 0
BITMAP
60
10
00
30
48
78
CC
CC
CC
CC
78
ENDCHAR
STARTCHAR uni1ED6
ENCODING 7894
SWIDTH 810 0
DWIDTH 9 0
BBX 8 14 0 0
BITMAP
3C
3C
00
18
24
3C
66
C3
C3
C3
C3
C3
66
3C
ENDCHAR
STARTCHAR uni1ED7
ENCODING 7895
SWIDTH 617 0
DWIDTH 7 0
BBX 6 11 0 0
BITMAP
78
78
00
30
48
78
CC
CC
CC
CC
78
ENDCHAR
STARTCHAR uni1ED8
ENCODING 7896
SWIDTH 810 0
DWIDTH 9 0
BBX 8 15 0 -3
BITMAP
18
24
00
3C
66
C3
C3
C3
C3
C3
66
3C
00
08
08
ENDCHAR
STARTCHAR uni1ED9
ENCODING 7897
SWIDTH 617 0
DWIDTH 7 0
BBX 6 12 0 -3
BITMAP
30
48
00
78
CC
CC
CC
CC
78
00
10
10
ENDCHAR
STARTCHAR uni1EDA
ENCODING 7898
SWIDTH 810 0
DWIDTH 9 0
BBX 10 12 0 0
BITMAP
0300
0400
0000
3CC0
66C0
C3C0
C3C0
C300
C300
C300
6600
3C00
ENDCHAR
STARTCHAR uni1EDB
ENCODING 7899
SWIDTH 617 0
DWIDTH 7 0
BBX 8 9 0 0
BITMAP
0C
10
00
7B
CF
CF
CF
CC
78
ENDCHAR
STARTCHAR uni1EDC
ENCODING 7900
SWIDTH 810 0
DWIDTH 9 0
BBX 10 12 0 0
BITMAP
1800
0400
0000
3CC0
66C0
C3C0
C3C0
C300
C300
C300
6600
3C00
ENDCHAR
STARTCHAR uni1EDD
ENCODING 7901
SWIDTH 617 0
DWIDTH 7 0
BBX 8 9 0 0
BITMAP
30
08
00
7B
CF
CF
CF
CC
78
ENDCHAR
STARTCHAR uni1EE0
ENCODING 7904
SWIDTH 810 0
DWIDTH 9 0
BBX 10 12 0 0
BITMAP
1E00
1E00
0000
3CC0
66C0
C3C0
C3C0
C300
C300
C300
6600
3C00
ENDCHAR
STARTCHAR uni1EE1
ENCODING 7905
SWIDTH 617 0
DWIDTH 7 0
BBX 8 9 0 0
BITMAP
3C
3C
00
7B
CF
CF
CF
CC
78
ENDCHAR
STARTCHAR uni1EE2
ENCODING 7906
SWIDTH 810 0
DWIDTH 9 0
BBX 10 12 0 -3
BITMAP
3CC0
66C0
C3C0
C3C0
C300
C300
C300
6600
3C00
0000
0800
0800
ENDCHAR
STARTCHAR uni1EE3
ENCODING 7907
SWIDTH 617 0
DWIDTH 7 0
BBX 8 9 0 -3
BITMAP
7B
CF
CF
CF
CC
78
00
10
10
ENDCHAR
STARTCHAR uni1EE4
ENCODING 7908
SWIDTH 747 0
DWIDTH 8 0
BBX 8 12 0 -3
BITMAP
F7
62
62
62
62
62
62
62
3C
00
10
10
ENDCHAR
STARTCHAR uni1EE5
ENCODING 7909
SWIDTH 654 0
DWIDTH 7 0
BBX 7 9 0 -3
BITMAP
FC
6C
6C
6C
7C
6E
00
10
10
ENDCHAR
STARTCHAR uni1EE8
ENCODING 7912
SWIDTH 747 0
DWIDTH 8 0
BBX 10 12 0 0
BITMAP
0600
0800
0000
F7C0
62C0
62C0
62C0
6200
6200
6200
6200
3C00
ENDCHAR
STARTCHAR uni1EE9
ENCODING 7913
SWIDTH 654 0
DWIDTH 7 0
BBX 9 9 0 0
BITMAP
0600
0800
0000
FD80
6D80
6D80
6D80
7C00
6E00
ENDCHAR
STARTCHAR uni1EEA
ENCODING 7914
SWIDTH 747 0
DWIDTH 8 0
BBX 10 12 0 0
BITMAP
1800
0400
0000
F7C0
62C0
62C0
62C0
6200
6200
6200
6200
3C00
ENDCHAR
STARTCHAR uni1EEB
ENCODING 7915
SWIDTH 654 0
DWIDTH 7 0
BBX 9 9 0 0
BITMAP
3000
0800
0000
FD80
6D80
6D80
6D80
7C00
6E00
ENDCHAR
STARTCHAR uni1EEE
ENCODING 7918
SWIDTH 747 0
DWIDTH 8 0
BBX 10 12 0 0
BITMAP
1E00
1E00
0000
F7C0
62C0
62C0
62C0
6200
6200
6200
6200
3C00
ENDCHAR
STARTCHAR uni1EEF
ENCODING 7919
SWIDTH 654 0
DWIDTH 7 0
BBX 9 9 0 0
BITMAP
1E00
1E00
0000
FD80
6D80
6D80
6D80
7C00
6E00
ENDCHAR
STARTCHAR uni1EF0
ENCODING 7920
SWIDTH 747 0
DWIDTH 8 0
BBX 10 12 0 -3
BITMAP
F7C0
62C0
62C0
62C0
6200
6200
6200
6200
3C00
0000
0800
0800
ENDCHAR
STARTCHAR uni1EF1
ENCODING 7921
SWIDTH 654 0
DWIDTH 7 0
BBX 9 9 0 -3
BITMAP
FD80
6D80
6D80
6D80
7C00
6E00
0000
0800
0800
ENDCHAR
STARTCHAR Ygrave
ENCODING 7922
SWIDTH 717 0
DWIDTH 8 0
BBX 8 12 0 0
BITMAP
30
08
00
E3
62
72
34
38
18
18
18
3C
ENDCHAR
STARTCHAR ygrave
ENCODING 7923
SWIDTH 654 0
DWIDTH 7 0
BBX 7 11 0 -2
BITMAP
60
10
00
E6
64
64
38
38
10
10
60
ENDCHAR
STARTCHAR uni1EF4
ENCODING 7924
SWIDTH 717 0
DWIDTH 8 0
BBX 8 12 0 -3
BITMAP
E3
62
72
34
38
18
18
18
3C
00
08
08
ENDCHAR
STARTCHAR uni1EF5
ENCODING 7925
SWIDTH 654 0
DWIDTH 7 0
BBX 7 11 0 -5
BITMAP
E6
64
64
38
38
10
10
60
00
10
10
ENDCHAR
STARTCHAR uni1EF8
ENCODING 7928
SWIDTH 717 0
DWIDTH 8 0
BBX 8 12 0 0
BITMAP
3C
3C
00
E3
62
72
34
38
18
18
18
3C
ENDCHAR
STARTCHAR uni1EF9
ENCODING 7929
SWIDTH 654 0
DWIDTH 7 0
BBX 7 11 0 -2
BITMAP
78
78
00
E6
64
64
38
38
10
10
60
ENDCHAR
STARTCHAR uni2000
ENCODING 8192
SWIDTH 500 0
DWIDTH 6 0
BBX 1 1 0 0
BITMAP
00
ENDCHAR
STARTCHAR uni2001
ENCODING 8193
SWIDTH 1000 0
DWIDTH 11 0
BBX 1 1 0 0
BITMAP
00
ENDCHAR
STARTCHAR uni2002
ENCODING 8194
SWIDTH 500 0
DWIDTH 6 0
BBX 1 1 0 0
BITMAP
00
ENDCHAR
STARTCHAR uni2003
ENCODING 8195
SWIDTH 1000 0
DWIDTH 11 0
BBX 1 1 0 0
BITMAP
00
ENDCHAR
STARTCHAR uni2004
ENCODING 8196
SWIDTH 333 0
DWIDTH 4 0
BBX 1 1 0 0
BITMAP
00
ENDCHAR
STARTCHAR uni2005
ENCODING 8197
SWIDTH 250 0
DWIDTH 3 0
BBX 1 1 0 0
BITMAP
00
ENDCHAR
STARTCHAR uni2006
ENCODING 8198
SWIDTH 167 0
DWIDTH 2 0
BBX 1 1 0 0
BITMAP
00
ENDCHAR
STARTCHAR uni2007
ENCODING 8199
SWIDTH 623 0
DWIDTH 7 0
BBX 1 1 0 0
BITMAP
00
ENDCHAR
STARTCHAR uni2008
ENCODING 8200
SWIDTH 265 0
DWIDTH 3 0
BBX 1 1 0 0
BITMAP
00
ENDCHAR
STARTCHAR uni2009
ENCODING 8201
SWIDTH 200 0
DWIDTH 2 0
BBX 1 1 0 0
BITMAP
00
ENDCHAR
STARTCHAR uni200A
ENCODING 8202
SWIDTH 100 0
DWIDTH 1 0
BBX 1 1 0 0
BITMAP
00
ENDCHAR
STARTCHAR uni200B
ENCODING 8203
SWIDTH 0 0
DWIDTH 0 0
BBX 1 1 0 0
BITMAP
00
ENDCHAR
STARTCHAR uni2010
ENCODING 8208
SWIDTH 289 0
DWIDTH 3 0
BBX 3 2 0 2
BITMAP
E0
E0
ENDCHAR
STARTCHAR uni2011
ENCODING 8209
SWIDTH 289 0
DWIDTH 3 0
BBX 3 2 0 2
BITMAP
E0
E0
ENDCHAR
STARTCHAR figuredash
ENCODING 8210
SWIDTH 500 0
DWIDTH 5 0
BBX 5 1 0 3
BITMAP
F8
ENDCHAR
STARTCHAR endash
ENCODING 8211
SWIDTH 500 0
DWIDTH 5 0
BBX 5 1 0 3
BITMAP
F8
ENDCHAR
STARTCHAR emdash
ENCODING 8212
SWIDTH 1000 0
DWIDTH 11 0
BBX 10 1 1 3
BITMAP
FFC0
ENDCHAR
STARTCHAR afii00208
ENCODING 8213
SWIDTH 1000 0
DWIDTH 11 0
BBX 10 1 1 3
BITMAP
FFC0
ENDCHAR
STARTCHAR quoteleft
ENCODING 8216
SWIDTH 265 0
DWIDTH 3 0
BBX 2 4 0 5
BITMAP
C0
C0
C0
C0
ENDCHAR
STARTCHAR quoteright
ENCODING 8217
SWIDTH 265 0
DWIDTH 3 0
BBX 2 4 0 5
BITMAP
C0
C0
C0
C0
ENDCHAR
STARTCHAR quotesinglbase
ENCODING 8218
SWIDTH 265 0
DWIDTH 3 0
BBX 2 4 0 -2
BITMAP
C0
C0
C0
C0
ENDCHAR
STARTCHAR quotereversed
ENCODING 8219
SWIDTH 265 0
DWIDTH 3 0
BBX 2 4 0 5
BITMAP
C0
C0
C0
C0
ENDCHAR
STARTCHAR quotedblleft
ENCODING 8220
SWIDTH 470 0
DWIDTH 5 0
BBX 4 4 1 5
BITMAP
50
E0
F0
F0
ENDCHAR
STARTCHAR quotedblright
ENCODING 8221
SWIDTH 470 0
DWIDTH 5 0
BBX 4 4 1 5
BITMAP
F0
F0
F0
A0
ENDCHAR
STARTCHAR quotedblbase
ENCODING 8222
SWIDTH 470 0
DWIDTH 5 0
BBX 4 4 1 -2
BITMAP
F0
F0
F0
F0
ENDCHAR
STARTCHAR uni201F
ENCODING 8223
SWIDTH 470 0
DWIDTH 5 0
BBX 4 4 1 5
BITMAP
F0
F0
F0
50
ENDCHAR
STARTCHAR dagger
ENCODING 8224
SWIDTH 623 0
DWIDTH 7 0
BBX 6 11 0 -2
BITMAP
30
30
B4
FC
30
30
30
30
30
30
30
ENDCHAR
STARTCHAR daggerdbl
ENCODING 8225
SWIDTH 623 0
DWIDTH 7 0
BBX 6 11 0 -2
BITMAP
30
30
B4
FC
30
30
B4
FC
30
30
30
ENDCHAR
STARTCHAR bullet
ENCODING 8226
SWIDTH 623 0
DWIDTH 7 0
BBX 4 4 1 2
BITMAP
60
F0
F0
60
ENDCHAR
STARTCHAR ellipsis
ENCODING 8230
SWIDTH 1000 0
DWIDTH 11 0
BBX 8 2 2 0
BITMAP
DB
DB
ENDCHAR
STARTCHAR perthousand
ENCODING 8240
SWIDTH 1139 0
DWIDTH 13 0
BBX 12 9 0 0
BITMAP
6300
F200
F400
6800
1E60
1FF0
2FF0
4FF0
C660
ENDCHAR
STARTCHAR guilsinglleft
ENCODING 8249
SWIDTH 337 0
DWIDTH 4 0
BBX 3 6 0 0
BITMAP
20
40
C0
C0
40
20
ENDCHAR
STARTCHAR guilsinglright
ENCODING 8250
SWIDTH 337 0
DWIDTH 4 0
BBX 3 6 0 0
BITMAP
80
40
60
60
40
80
ENDCHAR
STARTCHAR fraction
ENCODING 8260
SWIDTH 55 0
DWIDTH 1 0
BBX 9 9 -1 0
BITMAP
0380
0700
0600
0C00
1C00
1800
3000
7000
E000
ENDCHAR
STARTCHAR oneinferior
ENCODING 8321
SWIDTH 374 0
DWIDTH 4 0
BBX 3 5 -6 -3
BITMAP
C0
40
40
40
E0
ENDCHAR
STARTCHAR twoinferior
ENCODING 8322
SWIDTH 374 0
DWIDTH 4 0
BBX 3 5 -6 -3
BITMAP
E0
A0
40
C0
E0
ENDCHAR
STARTCHAR threeinferior
ENCODING 8323
SWIDTH 374 0
DWIDTH 4 0
BBX 3 5 -6 -3
BITMAP
E0
A0
40
A0
E0
ENDCHAR
STARTCHAR uni20A5
ENCODING 8357
SWIDTH 967 0
DWIDTH 11 0
BBX 10 11 0 -2
BITMAP
0100
0200
0200
ED80
7F80
6D80
6D80
6D80
FFC0
1000
2000
ENDCHAR
STARTCHAR uni20A6
ENCODING 8358
SWIDTH 788 0
DWIDTH 9 0
BBX 8 9 0 0
BITMAP
E7
62
72
7E
5A
7E
4E
46
E6
ENDCHAR
STARTCHAR uni20A9
ENCODING 8361
SWIDTH 955 0
DWIDTH 10 0
BBX 11 9 0 0
BITMAP
E660
6640
6640
7FC0
7B80
3F80
3380
3100
1100
ENDCHAR
STARTCHAR Euro
ENCODING 8364
SWIDTH 711 0
DWIDTH 8 0
BBX 9 9 -2 0
BITMAP
0F80
1880
3000
FC00
3000
FC00
3000
1880
0F80
ENDCHAR
STARTCHAR uni20AD
ENCODING 8365
SWIDTH 747 0
DWIDTH 8 0
BBX 8 9 0 0
BITMAP
F2
66
6C
78
FF
7C
6E
66
F7
ENDCHAR
STARTCHAR uni2103
ENCODING 8451
SWIDTH 957 0
DWIDTH 11 0
BBX 10 9 0 0
BITMAP
C7C0
CC40
D800
1800
1800
1800
1800
0C40
07C0
ENDCHAR
STARTCHAR uni2109
ENCODING 8457
SWIDTH 830 0
DWIDTH 9 0
BBX 9 9 0 0
BITMAP
DF80
CC80
CC00
0D00
0F00
0D00
0C00
0C00
1C00
ENDCHAR
STARTCHAR trademark
ENCODING 8482
SWIDTH 1044 0
DWIDTH 11 0
BBX 11 5 0 4
BITMAP
FE60
B7C0
33C0
33C0
7EE0
ENDCHAR
STARTCHAR uni212A
ENCODING 8490
SWIDTH 747 0
DWIDTH 8 0
BBX 8 9 0 0
BITMAP
F2
66
6C
78
78
7C
6E
66
F7
ENDCHAR
STARTCHAR uni212B
ENCODING 8491
SWIDTH 795 0
DWIDTH 9 0
BBX 9 11 0 0
BITMAP
0C00
0C00
0800
1C00
1C00
3E00
2600
3F00
4300
4300
C380
ENDCHAR
STARTCHAR uni2132
ENCODING 8498
SWIDTH 584 0
DWIDTH 6 0
BBX 6 9 0 0
BITMAP
1C
18
18
58
78
58
18
98
FC
ENDCHAR
STARTCHAR universal
ENCODING 8704
SWIDTH 795 0
DWIDTH 9 0
BBX 9 9 0 0
BITMAP
C380
4300
4300
3F00
2600
3E00
1C00
1C00
0800
ENDCHAR
STARTCHAR existential
ENCODING 8707
SWIDTH 601 0
DWIDTH 7 0
BBX 6 9 0 0
BITMAP
FC
98
18
58
78
58
18
98
FC
ENDCHAR
STARTCHAR uni2204
ENCODING 8708
SWIDTH 601 0
DWIDTH 7 0
BBX 6 11 0 -1
BITMAP
04
FC
98
18
58
78
78
38
D8
FC
80
ENDCHAR
STARTCHAR minus
ENCODING 8722
SWIDTH 623 0
DWIDTH 7 0
BBX 6 1 0 3
BITMAP
FC
ENDCHAR
STARTCHAR fraction
ENCODING 8725
SWIDTH 55 0
DWIDTH 1 0
BBX 9 9 -1 0
BITMAP
0380
0700
0600
0C00
1C00
1800
3000
7000
E000
ENDCHAR
STARTCHAR periodcentered
ENCODING 8729
SWIDTH 623 0
DWIDTH 7 0
BBX 1 2 3 2
BITMAP
80
80
ENDCHAR
STARTCHAR uni2236
ENCODING 8758
SWIDTH 265 0
DWIDTH 3 0
BBX 2 6 0 0
BITMAP
C0
C0
00
00
C0
C0
ENDCHAR
STARTCHAR uni2259
ENCODING 8793
SWIDTH 623 0
DWIDTH 7 0
BBX 6 6 0 2
BITMAP
30
48
00
FC
00
FC
ENDCHAR
STARTCHAR uni225A
ENCODING 8794
SWIDTH 623 0
DWIDTH 7 0
BBX 6 6 0 2
BITMAP
48
30
00
FC
00
FC
ENDCHAR
STARTCHAR notequal
ENCODING 8800
SWIDTH 623 0
DWIDTH 7 0
BBX 6 11 0 -2
BITMAP
04
08
08
10
FC
30
FC
20
40
40
80
ENDCHAR
STARTCHAR equivalence
ENCODING 8801
SWIDTH 623 0
DWIDTH 7 0
BBX 6 5 0 1
BITMAP
FC
00
FC
00
FC
ENDCHAR
STARTCHAR uni2262
ENCODING 8802
SWIDTH 623 0
DWIDTH 7 0
BBX 6 11 0 -2
BITMAP
04
08
08
FC
10
FC
20
FC
40
40
80
ENDCHAR
STARTCHAR lessequal
ENCODING 8804
SWIDTH 623 0
DWIDTH 7 0
BBX 6 10 0 -2
BITMAP
04
0C
30
C0
40
30
08
04
00
FC
ENDCHAR
STARTCHAR greaterequal
ENCODING 8805
SWIDTH 623 0
DWIDTH 7 0
BBX 6 10 0 -2
BITMAP
80
C0
30
18
0C
30
40
80
00
FC
ENDCHAR
STARTCHAR uni226E
ENCODING 8814
SWIDTH 623 0
DWIDTH 7 0
BBX 6 11 0 -1
BITMAP
04
08
0C
1C
30
F0
60
30
48
44
80
ENDCHAR
STARTCHAR uni226F
ENCODING 8815
SWIDTH 623 0
DWIDTH 7 0
BBX 6 11 0 -1
BITMAP
04
08
88
D0
30
38
2C
30
40
C0
80
ENDCHAR
STARTCHAR uni2270
ENCODING 8816
SWIDTH 623 0
DWIDTH 7 0
BBX 6 11 0 -2
BITMAP
04
0C
0C
30
D0
70
30
28
44
40
FC
ENDCHAR
STARTCHAR uni2271
ENCODING 8817
SWIDTH 623 0
DWIDTH 7 0
BBX 6 11 0 -2
BITMAP
04
88
C8
30
18
3C
30
60
C0
40
FC
ENDCHAR
STARTCHAR fi
ENCODING -1
SWIDTH 672 0
DWIDTH 7 0
BBX 7 9 0 0
BITMAP
7C
7C
60
FC
6C
6C
6C
6C
EE
ENDCHAR
STARTCHAR fl
ENCODING -1
SWIDTH 672 0
DWIDTH 7 0
BBX 7 9 0 0
BITMAP
3C
6C
6C
EC
6C
6C
6C
6C
FE
ENDCHAR
ENDFONT
